<svg width="330" height="209" viewBox="0 0 330 209" fill="none" xmlns="http://www.w3.org/2000/svg">
<g clip-path="url(#clip0_6920_1442)">
<path d="M318.532 208.577C318.532 208.651 247.269 208.705 159.383 208.705C71.4962 208.705 0.213379 208.651 0.213379 208.577C0.213379 208.503 71.4615 208.449 159.383 208.449C247.304 208.449 318.532 208.508 318.532 208.577Z" fill="#263238"/>
<path d="M177.381 77.9277C177.381 77.9277 195.567 82.6825 201.318 101.707L193.612 105.108C193.612 105.108 191.841 91.8722 173.823 86.1083C164.072 82.9877 151.16 87.3881 147.587 91.4243L138.908 87.708C144.709 81.3732 159.025 72.9662 177.381 77.9277Z" fill="#FF8184"/>
<path d="M206.266 96.9125L187.042 103.237L201.795 110.571L206.266 96.9125Z" fill="#FF8184"/>
<path d="M154.694 208.577L86.7106 208.537C78.5328 208.537 71.9082 201.646 71.9082 193.096L71.9429 15.431C71.9429 6.9058 78.5824 -0.00491954 86.7602 2.62773e-06L154.743 0.039379C162.921 0.039379 169.546 6.95994 169.546 15.4802L169.511 193.17C169.511 201.671 162.876 208.582 154.694 208.577Z" fill="#263238"/>
<path d="M154.674 6.32499H141.494C139.723 6.32499 138.288 7.88531 138.288 9.80988V12.2857C138.288 14.2103 136.854 15.7706 135.088 15.7706H109.398C107.632 15.7706 106.198 14.2054 106.198 12.2808V9.78035C106.198 7.85578 104.763 6.29546 102.997 6.29546H98.3621H86.8249C81.0935 6.29546 76.4488 11.1339 76.4488 17.1242L76.4141 190.537C76.4141 196.508 81.0538 201.366 86.7802 201.366L154.629 201.41C160.356 201.41 165.005 196.572 165.005 190.581L165.04 17.1685C165.04 11.1684 160.4 6.32991 154.674 6.32499Z" fill="white"/>
<path d="M90.7795 187.643V192.732C90.784 192.834 90.7601 192.935 90.7106 193.025C90.6611 193.114 90.5878 193.188 90.4987 193.239C90.4095 193.29 90.3081 193.315 90.2053 193.313C90.1026 193.31 90.0025 193.28 89.916 193.224L85.8817 190.68C85.8018 190.629 85.736 190.559 85.6905 190.476C85.645 190.394 85.6211 190.301 85.6211 190.207C85.6211 190.113 85.645 190.02 85.6905 189.938C85.736 189.855 85.8018 189.785 85.8817 189.735L89.9011 187.17C89.9863 187.112 90.0861 187.078 90.1893 187.073C90.2926 187.068 90.3953 187.091 90.4862 187.14C90.5771 187.188 90.6526 187.261 90.7044 187.35C90.7561 187.439 90.7821 187.54 90.7795 187.643Z" fill="#E0E0E0"/>
<path d="M123.922 190.138C123.921 190.832 123.713 191.51 123.324 192.087C122.934 192.663 122.381 193.112 121.735 193.377C121.088 193.642 120.377 193.711 119.691 193.575C119.005 193.439 118.375 193.104 117.881 192.613C117.386 192.122 117.05 191.497 116.914 190.816C116.778 190.136 116.848 189.43 117.116 188.789C117.384 188.148 117.837 187.6 118.419 187.215C119.001 186.83 119.685 186.624 120.384 186.624C121.323 186.625 122.223 186.996 122.886 187.655C123.55 188.314 123.922 189.207 123.922 190.138Z" fill="#E0E0E0"/>
<path d="M154.907 187.082H150.238C149.725 187.082 149.31 187.494 149.31 188.002V192.649C149.31 193.157 149.725 193.569 150.238 193.569H154.907C155.419 193.569 155.835 193.157 155.835 192.649V188.002C155.835 187.494 155.419 187.082 154.907 187.082Z" fill="#E0E0E0"/>
<path d="M101.076 68.9497H106.535L105.473 68.1474C106.277 70.7725 107.082 73.3977 107.889 76.0228L111.715 88.5251C112.008 89.5096 112.306 90.4448 112.598 91.4046C112.667 91.6327 112.807 91.8334 112.997 91.9776C113.188 92.1219 113.42 92.2021 113.66 92.2069L129.272 92.1626H131.51C132.924 92.1626 132.929 89.9772 131.51 89.9821L115.898 90.0215H113.66L114.722 90.8188L112.311 82.9434L108.48 70.446L107.597 67.5616C107.528 67.3335 107.388 67.1328 107.198 66.9886C107.007 66.8443 106.775 66.7641 106.535 66.7593H101.076C99.6569 66.7593 99.6569 68.9448 101.076 68.9448V68.9497Z" fill="#263238"/>
<path d="M134.988 71.7307C133.96 76.2985 132.931 80.8662 131.902 85.434C131.758 86.0887 131.609 86.7482 131.46 87.4029L132.259 86.8024L125.575 86.7384L114.857 86.635L112.405 86.6104L113.199 87.2109C111.77 82.6891 110.338 78.1656 108.902 73.6405L108.296 71.7307L107.498 72.7644H135.782C135.99 72.7483 136.185 72.6551 136.327 72.5031C136.468 72.3512 136.547 72.1518 136.547 71.9448C136.547 71.7378 136.468 71.5384 136.327 71.3865C136.185 71.2346 135.99 71.1413 135.782 71.1253H107.498C107.371 71.1271 107.246 71.1575 107.133 71.2142C107.02 71.2709 106.922 71.3524 106.845 71.4525C106.769 71.5526 106.716 71.6687 106.692 71.7919C106.667 71.9152 106.671 72.0424 106.704 72.1639C108.136 76.6857 109.568 81.2092 111.001 85.7343C111.204 86.3692 111.408 87.0091 111.606 87.6441C111.658 87.8155 111.764 87.9662 111.907 88.0749C112.05 88.1836 112.225 88.2447 112.405 88.2495L119.089 88.3135L129.808 88.4168L132.259 88.4414C132.439 88.4382 132.613 88.3782 132.755 88.2702C132.898 88.1622 133.002 88.0118 133.053 87.8409L136.135 74.1327L136.581 72.1639C136.81 71.1351 135.222 70.6971 134.988 71.7307Z" fill="#263238"/>
<path d="M113.125 72.4297C113.993 77.4257 115.11 82.3823 115.968 87.3783C116.147 88.4168 117.74 87.9739 117.561 86.9451C116.693 81.9442 115.576 76.9925 114.718 71.9916C114.539 70.9579 112.946 71.396 113.125 72.4297Z" fill="#263238"/>
<path d="M121.843 72.2131C121.926 77.3387 122.014 82.4627 122.106 87.585C122.106 88.6383 123.774 88.6433 123.759 87.585C123.676 82.4627 123.588 77.3387 123.496 72.2131C123.496 71.1597 121.828 71.1548 121.843 72.2131Z" fill="#263238"/>
<path d="M129.897 87.772L131.996 74.118L132.294 72.1491C132.344 71.9399 132.313 71.7196 132.206 71.5324C132.099 71.3452 131.925 71.2051 131.718 71.1401C131.51 71.0926 131.291 71.1257 131.107 71.2327C130.922 71.3398 130.786 71.5126 130.726 71.7159C130.024 76.264 129.326 80.8154 128.632 85.37C128.532 86.0198 128.428 86.6695 128.329 87.3389C128.279 87.5481 128.31 87.7684 128.417 87.9556C128.524 88.1428 128.698 88.2829 128.905 88.3479C129.116 88.4054 129.341 88.3776 129.532 88.2706C129.723 88.1637 129.863 87.9862 129.922 87.777L129.897 87.772Z" fill="#263238"/>
<path d="M109.299 77.5585H134.274C134.482 77.5425 134.676 77.4493 134.818 77.2973C134.96 77.1454 135.038 76.946 135.038 76.739C135.038 76.532 134.96 76.3326 134.818 76.1807C134.676 76.0288 134.482 75.9355 134.274 75.9195H109.299C109.091 75.9355 108.896 76.0288 108.755 76.1807C108.613 76.3326 108.534 76.532 108.534 76.739C108.534 76.946 108.613 77.1454 108.755 77.2973C108.896 77.4493 109.091 77.5425 109.299 77.5585Z" fill="#263238"/>
<path d="M111.641 83.3076H133.267C133.485 83.3076 133.695 83.2215 133.849 83.0683C134.004 82.9151 134.09 82.7072 134.09 82.4905C134.09 82.2738 134.004 82.066 133.849 81.9128C133.695 81.7595 133.485 81.6735 133.267 81.6735H111.641C111.423 81.6735 111.213 81.7595 111.059 81.9128C110.904 82.066 110.817 82.2738 110.817 82.4905C110.817 82.7072 110.904 82.9151 111.059 83.0683C111.213 83.2215 111.423 83.3076 111.641 83.3076Z" fill="#263238"/>
<path d="M131.5 99.3933C133.123 99.3933 134.438 98.0886 134.438 96.4793C134.438 94.87 133.123 93.5654 131.5 93.5654C129.878 93.5654 128.562 94.87 128.562 96.4793C128.562 98.0886 129.878 99.3933 131.5 99.3933Z" fill="#263238"/>
<path d="M115.343 99.3933C116.965 99.3933 118.281 98.0886 118.281 96.4793C118.281 94.87 116.965 93.5654 115.343 93.5654C113.721 93.5654 112.405 94.87 112.405 96.4793C112.405 98.0886 113.721 99.3933 115.343 99.3933Z" fill="#263238"/>
<path d="M109.711 57.2349C109.711 57.2349 97.6276 56.8313 90.5415 67.4976L94.6701 71.0071C94.6701 71.0071 98.228 63.1809 110.395 62.9299C116.985 62.797 121.511 66.6018 122.965 69.7421L130.433 69.6142C128.026 64.6477 121.938 57.5401 109.711 57.2349Z" fill="#FF8184"/>
<path d="M88.9487 64.0226L99.6077 71.4403L89.9213 73.3895L88.9487 64.0226Z" fill="#FF8184"/>
<path d="M159.552 24.5911C159.553 24.8269 159.483 25.0577 159.352 25.2542C159.22 25.4508 159.033 25.6042 158.814 25.6951C158.594 25.786 158.353 25.8103 158.12 25.7649C157.886 25.7195 157.672 25.6065 157.503 25.4401C157.335 25.2737 157.22 25.0615 157.173 24.8303C157.127 24.5991 157.15 24.3593 157.241 24.1414C157.332 23.9234 157.485 23.7371 157.683 23.606C157.881 23.4749 158.113 23.4049 158.351 23.4049C158.668 23.4049 158.973 23.5297 159.198 23.752C159.423 23.9744 159.55 24.2761 159.552 24.5911Z" fill="#263238"/>
<path d="M158.351 29.0358C159.014 29.0358 159.552 28.5025 159.552 27.8447C159.552 27.1868 159.014 26.6535 158.351 26.6535C157.688 26.6535 157.15 27.1868 157.15 27.8447C157.15 28.5025 157.688 29.0358 158.351 29.0358Z" fill="#263238"/>
<path d="M158.351 32.2894C159.014 32.2894 159.552 31.7561 159.552 31.0982C159.552 30.4404 159.014 29.9071 158.351 29.9071C157.688 29.9071 157.15 30.4404 157.15 31.0982C157.15 31.7561 157.688 32.2894 158.351 32.2894Z" fill="#263238"/>
<path d="M86.8445 24.0251L81.9468 27.6675H83.1973V32.0187L85.8322 32.0285V28.7701L87.9164 28.7651V32.0187H90.467V27.6232L91.7373 27.6084L86.8445 24.0251Z" fill="#263238"/>
<path d="M165.352 36.6061C165.352 36.675 145.369 36.7341 120.727 36.7341C96.0841 36.7341 76.1011 36.675 76.1011 36.6061C76.1011 36.5372 96.0791 36.4781 120.727 36.4781C145.374 36.4781 165.352 36.5372 165.352 36.6061Z" fill="#E0E0E0"/>
<path d="M119.784 118.555H118.99C116.304 118.555 114.127 120.715 114.127 123.379V162.185C114.127 164.849 116.304 167.009 118.99 167.009H119.784C122.47 167.009 124.647 164.849 124.647 162.185V123.379C124.647 120.715 122.47 118.555 119.784 118.555Z" fill="#E0E0E0"/>
<path d="M139.871 143.929C139.883 147.257 138.899 150.514 137.045 153.287C135.19 156.06 132.547 158.225 129.451 159.507C126.355 160.79 122.946 161.133 119.653 160.493C116.361 159.853 113.334 158.258 110.956 155.91C108.577 153.563 106.955 150.569 106.293 147.306C105.631 144.044 105.96 140.66 107.237 137.582C108.515 134.505 110.685 131.873 113.471 130.02C116.257 128.166 119.536 127.174 122.891 127.169C125.115 127.163 127.319 127.592 129.376 128.431C131.434 129.27 133.304 130.503 134.881 132.06C136.458 133.616 137.71 135.465 138.567 137.502C139.423 139.539 139.866 141.722 139.871 143.929Z" fill="#FF8184"/>
<path d="M136.303 144.106C136.308 146.637 135.557 149.112 134.144 151.219C132.731 153.326 130.72 154.97 128.365 155.943C126.01 156.917 123.417 157.176 120.914 156.688C118.411 156.2 116.11 154.987 114.301 153.203C112.493 151.418 111.258 149.141 110.754 146.661C110.25 144.18 110.498 141.607 111.468 139.266C112.438 136.926 114.085 134.923 116.202 133.511C118.319 132.099 120.811 131.341 123.362 131.333C125.057 131.328 126.737 131.654 128.305 132.294C129.874 132.933 131.3 133.873 132.502 135.059C133.703 136.245 134.658 137.655 135.31 139.207C135.963 140.76 136.3 142.424 136.303 144.106Z" fill="#FF8C8C"/>
<path d="M135.837 143.934C135.821 143.866 135.813 143.797 135.812 143.727C135.812 143.575 135.782 143.373 135.767 143.117C135.767 142.982 135.757 142.835 135.737 142.674C135.737 142.506 135.683 142.329 135.648 142.137C135.59 141.692 135.499 141.251 135.375 140.818C135.067 139.626 134.58 138.486 133.931 137.437C132.989 135.897 131.729 134.571 130.234 133.547C128.739 132.524 127.043 131.824 125.257 131.496C123.009 131.089 120.692 131.283 118.543 132.057C117.971 132.262 117.414 132.505 116.876 132.785C116.608 132.933 116.35 133.1 116.082 133.277C115.813 133.434 115.556 133.61 115.313 133.804C114.802 134.18 114.317 134.587 113.859 135.025C113.41 135.49 112.993 135.983 112.608 136.501C111.814 137.56 111.198 138.738 110.782 139.991C110.361 141.283 110.14 142.631 110.127 143.988C110.146 145.346 110.37 146.693 110.792 147.985C111.211 149.237 111.831 150.414 112.628 151.47C113.013 151.99 113.432 152.483 113.884 152.946C114.341 153.384 114.827 153.792 115.338 154.167C115.836 154.532 116.36 154.861 116.906 155.152C117.445 155.429 118.002 155.671 118.573 155.875C120.724 156.645 123.043 156.833 125.292 156.421C127.25 156.063 129.096 155.254 130.681 154.059C131.992 153.075 133.102 151.852 133.951 150.456C134.596 149.404 135.08 148.263 135.385 147.069C135.508 146.637 135.598 146.196 135.653 145.75C135.683 145.558 135.723 145.381 135.737 145.219C135.752 145.056 135.737 144.909 135.767 144.771C135.787 144.515 135.802 144.313 135.812 144.165C135.813 144.096 135.821 144.026 135.837 143.959C135.843 144.027 135.843 144.096 135.837 144.165V144.776C135.837 144.909 135.837 145.061 135.837 145.224C135.837 145.386 135.792 145.568 135.762 145.765C135.716 146.214 135.633 146.658 135.514 147.094C135.23 148.308 134.756 149.47 134.11 150.539C133.17 152.113 131.904 153.471 130.396 154.524C128.888 155.577 127.172 156.301 125.361 156.648C123.073 157.077 120.71 156.892 118.518 156.111C117.935 155.906 117.366 155.661 116.816 155.378C116.259 155.089 115.723 154.76 115.214 154.394C114.691 154.012 114.194 153.598 113.725 153.153C113.266 152.689 112.838 152.196 112.445 151.676C111.628 150.599 110.993 149.397 110.564 148.118C109.661 145.471 109.661 142.603 110.564 139.957C110.987 138.677 111.618 137.473 112.43 136.393C112.821 135.872 113.249 135.378 113.71 134.917C114.178 134.469 114.675 134.053 115.199 133.671C115.446 133.473 115.708 133.294 115.983 133.135C116.256 132.977 116.519 132.805 116.797 132.642C117.346 132.358 117.915 132.111 118.499 131.904C120.689 131.119 123.052 130.928 125.342 131.353C127.327 131.725 129.197 132.554 130.8 133.775C132.128 134.772 133.245 136.018 134.09 137.442C134.741 138.51 135.22 139.672 135.509 140.887C135.626 141.325 135.709 141.771 135.757 142.221C135.787 142.413 135.817 142.595 135.832 142.758V143.21C135.832 143.466 135.832 143.668 135.832 143.821C135.835 143.858 135.837 143.896 135.837 143.934Z" fill="#263238"/>
<g opacity="0.3">
<path d="M135.733 144.067C135.658 144.067 135.604 143.506 135.395 142.526C135.107 141.145 134.605 139.817 133.907 138.588C133.429 137.753 132.86 136.972 132.21 136.26C131.464 135.452 130.617 134.743 129.689 134.149C129.191 133.829 128.67 133.546 128.131 133.302C126.984 132.781 125.764 132.436 124.513 132.278C123.855 132.197 123.191 132.166 122.528 132.185C121.87 132.208 121.215 132.282 120.568 132.406C119.939 132.523 119.32 132.687 118.717 132.898C118.134 133.104 117.568 133.356 117.025 133.652C116.505 133.931 116.008 134.248 115.536 134.601C114.648 135.256 113.847 136.02 113.154 136.876C112.554 137.628 112.038 138.443 111.616 139.307C111.003 140.576 110.592 141.93 110.395 143.324C110.252 144.308 110.232 144.879 110.157 144.884C110.083 144.889 109.989 144.323 110.013 143.289C110.076 141.818 110.412 140.371 111.006 139.022C112.138 136.404 114.107 134.228 116.608 132.83C117.19 132.505 117.798 132.227 118.424 131.998C119.07 131.758 119.734 131.571 120.409 131.437C121.108 131.301 121.817 131.221 122.528 131.195C123.239 131.175 123.951 131.21 124.657 131.299C125.341 131.387 126.016 131.53 126.677 131.727C127.931 132.099 129.121 132.658 130.205 133.386C131.185 134.04 132.072 134.823 132.84 135.714C133.504 136.493 134.075 137.345 134.542 138.254C135.211 139.565 135.633 140.986 135.787 142.447C135.867 143.496 135.792 144.067 135.733 144.067Z" fill="#263238"/>
</g>
<g opacity="0.3">
<path d="M124.384 151.583L124.419 153.813L122.409 153.847L122.374 151.672C120.39 151.583 118.469 150.997 117.348 150.156L118.415 147.694C119.582 148.473 120.932 148.939 122.335 149.048L122.28 145.721C120.042 145.228 117.541 144.515 117.497 141.665C117.462 139.553 118.985 137.727 122.151 137.309L122.116 135.094L124.126 135.064L124.161 137.235C125.598 137.293 127.001 137.688 128.255 138.387L127.292 140.848C126.337 140.32 125.287 139.985 124.201 139.863L124.255 143.25C126.493 143.742 128.954 144.436 128.999 147.242C129.034 149.348 127.535 151.165 124.384 151.583ZM122.235 142.802L122.191 139.972C121.129 140.228 120.702 140.813 120.727 141.473C120.752 142.132 121.347 142.551 122.235 142.812V142.802ZM125.769 147.552C125.769 146.858 125.168 146.489 124.28 146.198L124.325 148.95C125.347 148.728 125.779 148.201 125.769 147.562V147.552Z" fill="#222222"/>
</g>
<path d="M113.745 120.495H94.1738V163.888H113.745V120.495Z" fill="white"/>
<path d="M222.364 140.134C223.155 143.602 222.891 147.226 221.606 150.546C220.32 153.865 218.07 156.732 215.141 158.783C212.212 160.833 208.736 161.976 205.152 162.066C201.568 162.156 198.037 161.189 195.007 159.288C191.978 157.387 189.585 154.636 188.131 151.386C186.678 148.135 186.23 144.529 186.843 141.025C187.457 137.522 189.105 134.277 191.578 131.703C194.052 129.129 197.239 127.34 200.738 126.564C203.056 126.046 205.455 125.986 207.796 126.388C210.138 126.79 212.377 127.645 214.385 128.905C216.393 130.166 218.131 131.806 219.5 133.732C220.869 135.659 221.842 137.834 222.364 140.134Z" fill="#FF8184"/>
<path d="M218.682 141.138C219.285 143.781 219.085 146.542 218.106 149.072C217.127 151.602 215.413 153.786 213.182 155.35C210.95 156.913 208.301 157.784 205.57 157.853C202.839 157.922 200.149 157.186 197.84 155.738C195.531 154.29 193.707 152.194 192.599 149.717C191.491 147.24 191.149 144.493 191.616 141.823C192.083 139.153 193.339 136.681 195.223 134.719C197.107 132.757 199.536 131.394 202.202 130.802C203.968 130.407 205.796 130.361 207.58 130.667C209.364 130.972 211.07 131.624 212.601 132.584C214.131 133.544 215.456 134.793 216.499 136.261C217.542 137.729 218.284 139.386 218.682 141.138Z" fill="#FF8C8C"/>
<path d="M218.156 141.064C218.124 140.998 218.099 140.929 218.081 140.858L217.893 140.232L217.759 139.775C217.699 139.607 217.62 139.43 217.545 139.238C217.378 138.789 217.179 138.351 216.95 137.929C216.35 136.754 215.575 135.676 214.652 134.729C212.457 132.449 209.53 130.996 206.374 130.619C203.218 130.242 200.028 130.964 197.349 132.662C196.801 133.007 196.277 133.389 195.781 133.804C195.533 134.021 195.285 134.257 195.061 134.478C194.817 134.704 194.59 134.948 194.382 135.207C193.936 135.715 193.527 136.253 193.156 136.816C192.794 137.4 192.472 138.006 192.193 138.633C191.612 139.919 191.245 141.291 191.106 142.694C190.794 145.6 191.453 148.528 192.982 151.027C193.711 152.237 194.633 153.323 195.711 154.241C196.739 155.153 197.913 155.888 199.185 156.417C199.791 156.688 200.416 156.915 201.056 157.096C201.682 157.261 202.318 157.385 202.961 157.465C206.115 157.866 209.311 157.169 212.004 155.493C214.697 153.817 216.721 151.266 217.729 148.275C218.16 147.032 218.397 145.731 218.434 144.416C218.459 143.937 218.45 143.457 218.409 142.979C218.409 142.772 218.409 142.58 218.369 142.403C218.329 142.226 218.319 142.073 218.295 141.911C218.255 141.64 218.225 141.419 218.2 141.266C218.186 141.193 218.178 141.119 218.176 141.045C218.201 141.115 218.219 141.187 218.23 141.261C218.26 141.419 218.3 141.63 218.354 141.901C218.377 142.045 218.407 142.209 218.444 142.393C218.444 142.57 218.473 142.762 218.493 142.974C218.547 143.455 218.563 143.938 218.543 144.421C218.527 145.75 218.305 147.068 217.883 148.329C217.271 150.185 216.269 151.89 214.943 153.333C213.617 154.776 211.998 155.922 210.191 156.697C207.906 157.672 205.399 158.022 202.931 157.711C202.274 157.633 201.622 157.51 200.981 157.342C200.329 157.157 199.691 156.927 199.071 156.653C198.439 156.376 197.825 156.059 197.235 155.703C196.644 155.32 196.08 154.897 195.548 154.438C194.443 153.504 193.501 152.397 192.759 151.16C191.997 149.884 191.435 148.502 191.092 147.059C190.783 145.604 190.698 144.11 190.838 142.63C190.982 141.197 191.359 139.797 191.955 138.485C192.242 137.844 192.574 137.224 192.947 136.629C193.33 136.058 193.749 135.512 194.203 134.995C194.416 134.731 194.648 134.483 194.898 134.252C195.146 134.026 195.394 133.784 195.632 133.568C196.137 133.143 196.673 132.755 197.235 132.406C199.336 131.084 201.755 130.341 204.242 130.255C206.211 130.193 208.17 130.548 209.991 131.294C211.812 132.041 213.451 133.163 214.801 134.587C215.725 135.548 216.493 136.646 217.079 137.84C217.303 138.271 217.495 138.716 217.655 139.174C217.729 139.371 217.803 139.548 217.858 139.716C217.913 139.883 217.942 140.04 217.977 140.208L218.141 140.838C218.153 140.913 218.158 140.989 218.156 141.064Z" fill="#263238"/>
<g opacity="0.3">
<path d="M218.081 141.246C218.002 141.246 217.813 140.69 217.366 139.716C216.739 138.345 215.902 137.078 214.885 135.96C214.191 135.202 213.415 134.52 212.573 133.927C211.605 133.255 210.555 132.709 209.447 132.303C208.229 131.855 206.952 131.588 205.655 131.51C204.974 131.466 204.291 131.476 203.611 131.54C202.917 131.608 202.229 131.727 201.552 131.894C200.874 132.073 200.211 132.3 199.567 132.574C198.939 132.844 198.333 133.164 197.756 133.528C196.659 134.22 195.669 135.065 194.818 136.039C194.045 136.924 193.391 137.905 192.873 138.958C192.421 139.881 192.072 140.849 191.831 141.847C191.491 143.311 191.379 144.818 191.498 146.316C191.583 147.384 191.697 147.975 191.612 147.995C191.528 148.014 191.305 147.453 191.116 146.365C190.823 144.822 190.823 143.238 191.116 141.694C191.548 139.38 192.573 137.215 194.093 135.409C194.528 134.882 195.003 134.388 195.513 133.932C196.043 133.458 196.61 133.027 197.21 132.642C197.829 132.244 198.479 131.895 199.155 131.599C199.853 131.299 200.573 131.052 201.309 130.861C202.045 130.675 202.795 130.547 203.551 130.477C204.286 130.418 205.025 130.418 205.76 130.477C206.472 130.525 207.179 130.631 207.874 130.792C208.54 130.941 209.194 131.141 209.829 131.392C211.003 131.85 212.109 132.463 213.119 133.213C213.993 133.872 214.787 134.628 215.486 135.468C216.492 136.681 217.266 138.068 217.768 139.558C218.086 140.607 218.141 141.217 218.081 141.246Z" fill="#263238"/>
</g>
<g opacity="0.3">
<path d="M208.003 151.686L208.563 154.01L206.474 154.502L205.928 152.247C203.829 152.612 201.696 152.439 200.331 151.819L200.872 149.023C202.271 149.562 203.788 149.732 205.273 149.516L204.44 146.07C201.988 146.07 199.215 145.908 198.485 142.945C197.959 140.749 199.11 138.485 202.321 137.328L201.765 135.03L203.854 134.537L204.4 136.797C205.913 136.524 207.469 136.612 208.941 137.053L208.514 139.849C207.389 139.515 206.208 139.406 205.04 139.529L205.889 143.053C208.34 143.053 211.069 143.205 211.774 146.124C212.33 148.275 211.188 150.52 208.003 151.686ZM203.71 143.028L203.001 140.075C201.954 140.567 201.661 141.291 201.825 141.97C201.988 142.649 202.723 142.959 203.715 143.028H203.71ZM208.499 147.153C208.325 146.429 207.621 146.169 206.648 146.08L207.338 148.94C208.34 148.477 208.668 147.832 208.499 147.153Z" fill="#222222"/>
</g>
<path d="M183.246 132.268C182.118 134.636 180.53 136.761 178.574 138.52C176.618 140.28 174.332 141.64 171.846 142.523C169.36 143.406 166.723 143.795 164.086 143.667C161.448 143.539 158.862 142.897 156.475 141.778C155.405 141.278 154.38 140.687 153.413 140.011C150.301 137.812 147.885 134.779 146.449 131.266C145.013 127.754 144.617 123.908 145.307 120.18C145.996 116.452 147.743 112.997 150.343 110.219C152.942 107.441 156.286 105.456 159.983 104.497C163.68 103.537 167.575 103.643 171.213 104.802C174.851 105.961 178.081 108.126 180.523 111.041C182.964 113.956 184.518 117.501 185 121.261C185.483 125.021 184.874 128.839 183.246 132.268Z" fill="#FF8184"/>
<path d="M179.326 130.664C178.038 133.39 175.964 135.675 173.366 137.232C170.768 138.788 167.763 139.545 164.732 139.406C161.7 139.268 158.778 138.24 156.335 136.454C153.892 134.668 152.039 132.203 151.009 129.371C149.979 126.539 149.819 123.468 150.549 120.546C151.28 117.624 152.868 114.983 155.112 112.957C157.356 110.93 160.156 109.61 163.158 109.162C166.159 108.715 169.226 109.161 171.972 110.444C173.794 111.292 175.429 112.488 176.785 113.963C178.141 115.438 179.19 117.164 179.873 119.042C180.556 120.92 180.859 122.913 180.765 124.907C180.671 126.901 180.182 128.857 179.326 130.664Z" fill="#FF8C8C"/>
<path d="M178.914 130.24C178.936 130.162 178.963 130.085 178.993 130.009C179.058 129.842 179.147 129.62 179.256 129.335L179.455 128.843C179.514 128.66 179.569 128.449 179.633 128.227C179.798 127.72 179.924 127.202 180.011 126.677C180.294 125.242 180.356 123.774 180.194 122.321C179.837 118.833 178.269 115.577 175.757 113.11C173.246 110.643 169.948 109.12 166.429 108.8C165.71 108.73 164.987 108.711 164.265 108.74C163.903 108.74 163.541 108.814 163.174 108.849C162.804 108.881 162.438 108.94 162.077 109.026C160.575 109.296 159.129 109.813 157.8 110.557C156.405 111.291 155.139 112.245 154.053 113.382C151.782 115.723 150.349 118.739 149.974 121.966C149.782 123.522 149.846 125.097 150.163 126.633C150.432 128.122 150.95 129.556 151.696 130.875C152.042 131.523 152.435 132.145 152.872 132.736C153.308 133.305 153.782 133.845 154.291 134.35C156.21 136.263 158.608 137.634 161.238 138.323C163.325 138.863 165.503 138.96 167.629 138.607C169.756 138.254 171.784 137.459 173.579 136.275C174.813 135.473 175.917 134.49 176.855 133.361C177.206 132.958 177.528 132.53 177.817 132.081C177.951 131.889 178.08 131.717 178.179 131.555L178.442 131.087L178.8 130.457C178.837 130.383 178.88 130.312 178.929 130.245C178.902 130.324 178.869 130.399 178.83 130.472C178.745 130.629 178.636 130.846 178.497 131.117L178.249 131.609C178.15 131.776 178.026 131.953 177.897 132.15C177.614 132.608 177.297 133.044 176.949 133.455C176.022 134.61 174.92 135.616 173.684 136.437C171.871 137.656 169.818 138.479 167.66 138.851C165.502 139.223 163.29 139.135 161.169 138.593C159.103 138.074 157.17 137.132 155.493 135.827C153.816 134.523 152.433 132.884 151.433 131.018C151.068 130.346 150.748 129.65 150.475 128.936C150.218 128.201 150.013 127.45 149.86 126.687C149.537 125.121 149.471 123.513 149.666 121.927C150.052 118.63 151.516 115.549 153.835 113.156C154.944 111.997 156.237 111.024 157.661 110.276C158.349 109.899 159.064 109.57 159.799 109.292C160.529 109.048 161.273 108.851 162.027 108.701C162.395 108.615 162.768 108.556 163.144 108.524C163.521 108.489 163.893 108.435 164.26 108.421C167.773 108.278 171.233 109.303 174.091 111.334C175.862 112.611 177.339 114.247 178.424 116.134C179.508 118.02 180.176 120.114 180.383 122.276C180.533 123.747 180.452 125.231 180.145 126.677C180.049 127.205 179.913 127.725 179.738 128.232C179.663 128.454 179.609 128.66 179.539 128.847C179.47 129.035 179.39 129.192 179.326 129.34L179.033 130.004C179.005 130.088 178.965 130.168 178.914 130.24Z" fill="#263238"/>
<g opacity="0.3">
<path d="M178.725 130.334C178.641 130.3 178.869 129.669 179.147 128.513C179.544 126.89 179.684 125.216 179.564 123.551C179.477 122.414 179.266 121.291 178.934 120.199C178.548 118.955 178.003 117.766 177.311 116.66C176.939 116.064 176.523 115.497 176.066 114.962C175.593 114.405 175.078 113.883 174.527 113.402C173.957 112.902 173.348 112.448 172.706 112.043C171.384 111.21 169.937 110.588 168.419 110.202C166.277 109.662 164.041 109.603 161.874 110.03C160.586 110.287 159.337 110.705 158.157 111.275C157.127 111.781 156.155 112.397 155.259 113.111C153.953 114.165 152.818 115.411 151.894 116.808C151.234 117.792 150.927 118.398 150.842 118.358C150.758 118.319 150.947 117.674 151.502 116.577C152.316 115.029 153.41 113.643 154.728 112.486C155.635 111.683 156.634 110.99 157.705 110.419C158.946 109.767 160.27 109.283 161.64 108.982C162.38 108.819 163.132 108.712 163.888 108.662C165.5 108.552 167.119 108.693 168.687 109.08C170.327 109.483 171.891 110.148 173.317 111.049C174.006 111.488 174.658 111.981 175.267 112.526C176.422 113.554 177.412 114.751 178.204 116.074C179.551 118.311 180.296 120.853 180.368 123.458C180.421 125.202 180.148 126.941 179.564 128.587C179.172 129.793 178.8 130.363 178.725 130.334Z" fill="#263238"/>
</g>
<g opacity="0.3">
<path d="M162.707 132.702L161.601 135.113L159.432 134.129L160.504 131.781C158.415 130.683 156.653 129.084 155.884 127.622L158.281 125.53C159.131 126.961 160.342 128.149 161.794 128.975L163.442 125.377C161.298 123.709 158.976 121.701 160.375 118.614C161.422 116.33 163.993 115.124 167.6 116.281L168.697 113.889L170.87 114.873L169.793 117.207C171.311 117.989 172.617 119.119 173.604 120.504L171.307 122.665C170.554 121.617 169.597 120.728 168.493 120.052L166.816 123.714C168.975 125.358 171.257 127.351 169.868 130.388C168.846 132.633 166.32 133.829 162.707 132.702ZM164.891 122.198L166.29 119.136C165.02 118.875 164.28 119.298 163.953 120.007C163.625 120.716 164.072 121.464 164.891 122.198ZM166.255 129.089C166.598 128.336 166.156 127.642 165.367 126.898L164.007 129.852C165.203 130.108 165.938 129.763 166.255 129.074V129.089Z" fill="#222222"/>
</g>
<path d="M55.7115 98.1529C49.9007 101.136 45.4446 106.279 42.239 111.935C39.0333 117.591 36.974 123.807 34.9246 129.975L33.1382 161.777C39.8968 150.367 45.3255 136.954 46.7943 123.797L42.2935 123.399C45.3106 122.941 47.8414 120.775 49.4541 118.201C51.0668 115.627 51.8955 112.698 52.6845 109.745L47.226 110.562C51.5561 107.66 54.5946 103.217 55.7115 98.1529Z" fill="#E8E8E8"/>
<g opacity="0.3">
<path d="M55.7115 98.1529C49.9007 101.136 45.4446 106.279 42.239 111.935C39.0333 117.591 36.974 123.807 34.9246 129.975L33.1382 161.777C39.8968 150.367 45.3255 136.954 46.7943 123.797L42.2935 123.399C45.3106 122.941 47.8414 120.775 49.4541 118.201C51.0668 115.627 51.8955 112.698 52.6845 109.745L47.226 110.562C51.5561 107.66 54.5946 103.217 55.7115 98.1529Z" fill="#C0C0C0"/>
</g>
<path d="M32.1355 169.234C32.1355 169.234 17.4522 151.809 17.6259 135.172H23.5806C23.5806 135.172 17.1296 130.974 17.6259 128.621C18.1221 126.268 18.3057 117.364 18.3057 117.364L23.7245 118.708C23.7245 118.708 19.6604 116.69 19.1542 113.5C18.6481 110.311 20.3353 95.5195 20.3353 95.5195C20.3353 95.5195 26.945 102.411 28.9745 109.464C31.0041 116.517 36.3435 124.757 34.7804 146.262C33.2173 167.767 32.1355 169.234 32.1355 169.234Z" fill="#E4E4E4"/>
<path d="M39.5741 170.878C39.5741 170.878 55.4533 160.369 59.0112 146.961L54.2425 145.676C54.2425 145.676 60.3461 143.708 60.4553 141.699C60.5644 139.691 62.3955 132.5 62.3955 132.5L57.7409 132.401C57.7409 132.401 61.4527 131.663 62.5642 129.207C63.6758 126.751 65.5862 114.49 65.5862 114.49C65.5862 114.49 58.7582 118.595 55.5674 123.842C52.3767 129.089 46.2582 134.523 42.7599 152.154C39.2615 169.785 39.5741 170.878 39.5741 170.878Z" fill="#E4E4E4"/>
<path d="M24.3452 110.729C24.3714 110.785 24.3897 110.845 24.3998 110.906C24.4296 111.039 24.4742 111.216 24.5288 111.443L24.9903 113.51C25.1938 114.411 25.4319 115.508 25.685 116.793C25.9381 118.078 26.2507 119.53 26.5485 121.149C27.1737 124.383 27.8386 128.242 28.5334 132.539C29.2281 136.836 29.8583 141.581 30.4438 146.567C31.0294 151.553 31.4661 156.318 31.8134 160.659C32.1608 165.001 32.3791 168.909 32.5131 172.197C32.5925 173.836 32.6322 175.327 32.6768 176.627C32.7215 177.926 32.7414 179.058 32.7513 179.979C32.7612 180.899 32.7513 181.598 32.7513 182.095V182.647C32.7588 182.709 32.7588 182.772 32.7513 182.834C32.7445 182.772 32.7445 182.709 32.7513 182.647C32.7513 182.514 32.7513 182.332 32.7513 182.1C32.7513 181.608 32.7066 180.89 32.6768 179.979C32.6471 179.068 32.6123 177.936 32.5528 176.632C32.4932 175.328 32.4486 173.841 32.3543 172.202C32.2005 168.919 31.9375 165.011 31.6 160.674C31.2626 156.338 30.7862 151.583 30.2106 146.597C29.635 141.611 28.975 136.876 28.3249 132.579C27.6749 128.281 27.0149 124.418 26.4095 121.184C26.1217 119.564 25.8289 118.102 25.5858 116.823C25.3426 115.543 25.1193 114.435 24.9308 113.535L24.5139 111.453C24.4742 111.226 24.4395 111.049 24.4147 110.911C24.3878 110.852 24.3646 110.791 24.3452 110.729Z" fill="#7D7B7B"/>
<path d="M30.1012 179.905C30.1012 179.905 16.6684 164.789 12.4902 155.649L15.6362 154.315C13.3536 154.689 11.0164 153.714 9.24484 152.238C7.47332 150.761 6.17817 148.817 4.90287 146.902L9.05131 146.208C5.23912 145.131 1.99315 142.636 -0.00976562 139.243C4.88302 140.045 9.30935 142.689 12.9616 146.041C15.8609 148.804 18.494 151.829 20.8267 155.078C22.009 156.636 23.0392 158.302 23.9033 160.054C26.1364 164.681 30.1062 174.353 30.1012 179.905Z" fill="#E4E4E4"/>
<path d="M59.2196 123.29C59.2064 123.344 59.1864 123.395 59.1601 123.443L58.9517 123.881C58.7581 124.28 58.4802 124.841 58.1329 125.559C57.4134 127.012 56.3911 129.118 55.1555 131.742C53.9199 134.365 52.4908 137.496 50.9575 141.005C49.4241 144.515 47.8213 148.388 46.2136 152.518C44.6058 156.648 43.1766 160.591 41.9162 164.203C40.6558 167.816 39.5939 171.094 38.7354 173.861C37.877 176.627 37.1971 178.867 36.7505 180.422C36.5223 181.185 36.3486 181.785 36.2196 182.209L36.0757 182.671C36.0632 182.725 36.0432 182.776 36.0161 182.824C36.0161 182.824 36.0161 182.77 36.0508 182.662L36.1699 182.194C36.2841 181.766 36.4478 181.165 36.6662 180.392C37.088 178.832 37.7331 176.578 38.5766 173.807C39.4202 171.035 40.4722 167.752 41.7078 164.13C42.9434 160.507 44.3874 156.549 45.9902 152.425C47.5931 148.3 49.2256 144.421 50.754 140.912C52.2824 137.402 53.7314 134.272 55.0067 131.663C56.282 129.054 57.2943 126.972 58.0436 125.496C58.4108 124.787 58.6986 124.231 58.907 123.842C59.0013 123.66 59.0757 123.522 59.1353 123.413C59.1588 123.369 59.1871 123.328 59.2196 123.29Z" fill="#7D7B7B"/>
<path d="M31.2375 186.383C31.2053 186.292 31.1853 186.198 31.178 186.102L31.044 185.3C30.9944 184.95 30.9299 184.527 30.8356 184.035C30.7413 183.543 30.6619 182.977 30.5279 182.361C30.2848 181.121 29.9424 179.659 29.5007 178.054C29.0591 176.45 28.5083 174.702 27.8136 172.906C27.1189 171.109 26.3745 169.431 25.6451 167.929C24.9156 166.428 24.1911 165.114 23.546 164.026C23.2384 163.475 22.9258 162.997 22.6677 162.55C22.4097 162.102 22.1715 161.757 21.978 161.462L21.5413 160.778C21.4865 160.699 21.4399 160.615 21.4023 160.527C21.4023 160.527 21.4718 160.595 21.5859 160.748L22.0822 161.408C22.2906 161.693 22.5387 162.052 22.8067 162.476C23.0746 162.899 23.4071 163.396 23.7048 163.933C24.3698 165.011 25.1042 166.33 25.8634 167.826C26.6226 169.322 27.3521 171.011 28.0518 172.812C28.7514 174.614 29.2874 176.381 29.729 177.99C30.1706 179.6 30.4882 181.081 30.7215 182.327C30.8455 182.947 30.92 183.513 30.9944 184.01C31.0688 184.507 31.1234 184.936 31.1631 185.29C31.2028 185.644 31.2226 185.886 31.2425 186.097C31.2529 186.192 31.2512 186.288 31.2375 186.383Z" fill="#7D7B7B"/>
<path d="M48.9628 182.829H19.5664V188.775H48.9628V182.829Z" fill="#FF8184"/>
<path d="M22.3701 188.775L25.546 208.783H43.3108L46.2733 188.775H22.3701Z" fill="#FF8184"/>
<path d="M47.1565 188.775C47.1565 188.844 41.5988 188.903 34.7509 188.903C27.9029 188.903 22.3452 188.844 22.3452 188.775C22.3452 188.706 27.9029 188.647 34.7509 188.647C41.5988 188.647 47.1565 188.701 47.1565 188.775Z" fill="#DDDDDD"/>
<path d="M265.163 149.038H187.911C185.754 149.038 184.005 150.773 184.005 152.912V205.131C184.005 207.271 185.754 209.005 187.911 209.005H265.163C267.32 209.005 269.068 207.271 269.068 205.131V152.912C269.068 150.773 267.32 149.038 265.163 149.038Z" fill="#455A64"/>
<path d="M267.818 173.511H245.8C242.147 173.511 239.186 176.449 239.186 180.072V181.15C239.186 184.774 242.147 187.712 245.8 187.712H267.818C271.471 187.712 274.432 184.774 274.432 181.15V180.072C274.432 176.449 271.471 173.511 267.818 173.511Z" fill="#455A64"/>
<path d="M267.818 187.958H245.8C243.98 187.955 242.234 187.237 240.947 185.96C239.66 184.683 238.935 182.951 238.933 181.145V180.072C238.935 178.267 239.66 176.536 240.947 175.26C242.235 173.984 243.98 173.266 245.8 173.265H267.818C269.637 173.268 271.381 173.986 272.668 175.262C273.954 176.538 274.678 178.268 274.681 180.072V181.145C274.678 182.951 273.954 184.681 272.668 185.958C271.382 187.235 269.638 187.954 267.818 187.958ZM245.8 173.757C244.112 173.759 242.493 174.424 241.298 175.608C240.104 176.792 239.431 178.398 239.429 180.072V181.145C239.43 182.821 240.102 184.428 241.296 185.613C242.491 186.798 244.111 187.464 245.8 187.466H267.818C269.506 187.463 271.125 186.796 272.319 185.611C273.512 184.426 274.183 182.82 274.184 181.145V180.072C274.182 178.398 273.51 176.794 272.317 175.61C271.123 174.426 269.506 173.76 267.818 173.757H245.8Z" fill="#263238"/>
<path d="M251.241 183.491C252.857 181.212 252.304 178.065 250.007 176.462C247.709 174.859 244.536 175.407 242.92 177.686C241.304 179.965 241.857 183.112 244.154 184.715C246.452 186.318 249.625 185.77 251.241 183.491Z" fill="#263238"/>
<path d="M240.888 40.4996C240.828 43.0966 241.324 45.6766 242.344 48.0693C243.363 50.4621 244.883 52.613 246.803 54.3801C247.679 51.8468 248.561 49.3135 249.448 46.7803" fill="#263238"/>
<path d="M260.821 25.3836C258.548 24.1531 255.809 23.9759 253.274 24.4828C250.748 25.0636 248.336 26.0513 246.133 27.4066C244.839 28.0699 243.682 28.9662 242.719 30.0498C241.071 32.1073 239.444 35.4642 239.285 38.1074C239.156 40.2288 239.975 45.5349 240.878 47.4595C241.707 49.2266 245.587 50.5703 247.502 51.0084L265.069 30.734C264.753 29.6077 264.215 28.5547 263.486 27.6363C262.757 26.7178 261.851 25.9521 260.821 25.3836Z" fill="#263238"/>
<path d="M263.848 28.1203L259.635 27.3721C261.938 32.7865 262.563 45.2544 263.883 50.9985C265.436 48.7589 269.044 41.9516 268.845 39.2444C268.647 36.5372 268.855 27.6576 263.848 28.1203Z" fill="#263238"/>
<path d="M266.26 36.9901C265.987 32.8161 263.183 27.697 258.99 28.1302L249.289 30.5912C247.795 30.9677 246.462 31.8097 245.487 32.9935C244.512 34.1772 243.945 35.6402 243.87 37.1673C243.87 37.3248 243.87 37.1328 243.87 37.2509L246.039 62.1768L253.323 76.515L259.774 64.4213C259.774 62.3884 259.774 57.8256 259.774 57.8354C259.774 57.8453 265.153 56.9396 266.225 49.9599C266.751 46.5243 266.558 41.6267 266.26 36.9901Z" fill="#FFBF9D"/>
<path d="M263.252 42.6998C263.257 42.9327 263.168 43.158 263.007 43.3273C262.846 43.4966 262.624 43.5965 262.389 43.6054C262.274 43.6142 262.159 43.6002 262.05 43.5645C261.941 43.5288 261.84 43.472 261.754 43.3974C261.667 43.3228 261.596 43.2318 261.545 43.1298C261.494 43.0278 261.464 42.9168 261.456 42.8031C261.455 42.5701 261.544 42.3455 261.706 42.1766C261.868 42.0077 262.09 41.9076 262.324 41.8975C262.439 41.8894 262.553 41.9038 262.662 41.9399C262.77 41.9759 262.87 42.0328 262.957 42.1073C263.043 42.1819 263.113 42.2726 263.164 42.3743C263.215 42.4759 263.245 42.5866 263.252 42.6998Z" fill="#263238"/>
<path d="M265.208 39.7169C265.094 39.8351 264.414 39.333 263.441 39.3379C262.469 39.3429 261.764 39.8302 261.66 39.7071C261.556 39.584 261.724 39.4462 262.032 39.2149C262.449 38.924 262.946 38.7691 263.456 38.7719C263.96 38.77 264.452 38.9269 264.86 39.2198C265.158 39.4561 265.262 39.6628 265.208 39.7169Z" fill="#263238"/>
<path d="M255.144 42.6998C255.149 42.9327 255.06 43.158 254.899 43.3273C254.738 43.4966 254.516 43.5965 254.281 43.6054C254.167 43.6142 254.051 43.6002 253.942 43.5645C253.833 43.5288 253.733 43.472 253.646 43.3974C253.559 43.3228 253.488 43.2319 253.437 43.1298C253.386 43.0278 253.356 42.9168 253.348 42.8031C253.347 42.5701 253.436 42.3455 253.598 42.1766C253.76 42.0077 253.982 41.9076 254.217 41.8975C254.331 41.8881 254.446 41.9015 254.555 41.937C254.664 41.9726 254.765 42.0294 254.851 42.1042C254.938 42.179 255.008 42.2702 255.059 42.3725C255.109 42.4748 255.138 42.5861 255.144 42.6998Z" fill="#263238"/>
<path d="M256.007 39.7169C255.898 39.8351 255.214 39.333 254.246 39.3379C253.278 39.3429 252.569 39.8302 252.464 39.7071C252.36 39.584 252.524 39.4462 252.837 39.2149C253.253 38.9231 253.751 38.7681 254.261 38.7719C254.765 38.77 255.257 38.9269 255.665 39.2198C255.963 39.4561 256.062 39.6628 256.007 39.7169Z" fill="#263238"/>
<path d="M259.035 47.2626C259.545 47.1015 260.073 47.0056 260.608 46.9771C260.856 46.9771 261.104 46.9033 261.104 46.7359C261.126 46.4822 261.068 46.228 260.94 46.0075C260.707 45.4168 260.444 44.7917 260.206 44.142C259.183 41.484 258.444 39.2986 258.553 39.2592C258.662 39.2198 259.61 41.3265 260.603 43.9992C260.846 44.6539 261.099 45.279 261.307 45.8746C261.467 46.177 261.513 46.5261 261.436 46.859C261.4 46.9455 261.345 47.0227 261.274 47.0849C261.204 47.1472 261.12 47.1928 261.029 47.2183C260.893 47.2546 260.753 47.2744 260.613 47.2774C260.088 47.3374 259.558 47.3325 259.035 47.2626Z" fill="#263238"/>
<path d="M250.425 55.3694C250.425 55.3694 252.708 60.1488 259.73 59.4843V57.8453C256.457 57.893 253.235 57.0357 250.425 55.3694Z" fill="#FF9A6C"/>
<path d="M255.705 36.2468C255.611 36.5077 254.643 36.3846 253.507 36.5224C252.37 36.6603 251.452 36.9704 251.304 36.739C251.234 36.6258 251.393 36.3797 251.765 36.1287C252.255 35.8104 252.815 35.613 253.398 35.5528C253.979 35.4847 254.569 35.5521 255.119 35.7497C255.536 35.9121 255.745 36.1238 255.705 36.2468Z" fill="#263238"/>
<path d="M264.89 36.7784C264.721 36.9999 264.052 36.7784 263.253 36.7784C262.454 36.7784 261.764 36.9261 261.61 36.6997C261.546 36.5914 261.65 36.3699 261.948 36.1631C262.346 35.9158 262.809 35.7908 263.279 35.8039C263.749 35.817 264.204 35.9677 264.587 36.237C264.87 36.4486 264.965 36.6701 264.89 36.7784Z" fill="#263238"/>
<path d="M264.354 30.6355C264.106 30.124 263.719 29.6908 263.237 29.384C262.756 29.0773 262.198 28.9091 261.625 28.898C260.478 28.8996 259.356 29.2257 258.39 29.8382C254.212 32.2303 252.063 38.0188 247.934 40.4996C246.917 41.1099 245.597 40.5488 244.734 41.356C243.87 42.1633 243.309 43.4578 243.786 44.5357C243.195 43.8052 242.712 42.9947 242.352 42.1288C242.176 41.6943 242.096 41.2277 242.116 40.76C242.137 40.2923 242.258 39.8344 242.471 39.4167C242.828 38.8014 243.463 38.3338 243.632 37.6447C243.786 37.0393 243.543 36.4092 243.567 35.7841C243.639 35.1499 243.86 34.5413 244.213 34.0072C245.83 31.1721 248.053 28.5929 250.922 27.0079C252.792 25.9372 254.921 25.391 257.08 25.4279C259.247 25.4795 261.324 26.2983 262.935 27.7364C263.863 28.5929 264.831 29.4739 264.354 30.6355Z" fill="#263238"/>
<path d="M244.832 42.2223C244.758 42.0205 241.101 40.7112 241.051 44.5702C241.002 48.316 244.818 47.5826 244.828 47.4743C244.837 47.366 244.832 42.2223 244.832 42.2223Z" fill="#FFBF9D"/>
<path d="M243.672 46.0419C243.672 46.0419 243.607 46.0862 243.493 46.1354C243.415 46.1685 243.33 46.1855 243.245 46.1855C243.16 46.1855 243.075 46.1685 242.997 46.1354C242.6 45.9878 242.267 45.3577 242.257 44.6588C242.252 44.3383 242.318 44.0206 242.451 43.7285C242.488 43.6129 242.552 43.5078 242.638 43.4221C242.725 43.3364 242.831 43.2727 242.947 43.2363C243.023 43.2165 243.103 43.2239 243.174 43.2573C243.245 43.2906 243.302 43.3477 243.334 43.4184C243.384 43.5218 243.334 43.5956 243.379 43.6055C243.424 43.6153 243.458 43.5415 243.429 43.3889C243.412 43.2951 243.36 43.211 243.285 43.1526C243.182 43.074 243.051 43.0386 242.922 43.0542C242.767 43.082 242.621 43.1491 242.499 43.2492C242.378 43.3492 242.284 43.4787 242.228 43.6251C242.062 43.9479 241.98 44.3066 241.989 44.6686C241.989 45.4266 242.391 46.1453 242.932 46.2979C243.034 46.3281 243.141 46.3355 243.246 46.3193C243.35 46.3031 243.45 46.2638 243.538 46.2044C243.667 46.1305 243.687 46.0468 243.672 46.0419Z" fill="#FF9A6C"/>
<path d="M243.329 40.2928C243.409 40.258 243.486 40.2151 243.557 40.1649C243.701 40.0763 243.925 39.9532 244.193 39.7662C244.935 39.2251 245.619 38.608 246.232 37.9253C247.119 36.9011 247.948 35.828 248.713 34.7111C249.643 33.3421 250.687 32.0528 251.834 30.857C252.437 30.2609 253.102 29.7312 253.819 29.277C254.501 28.8633 255.231 28.5327 255.993 28.2926C257.284 27.878 258.643 27.711 259.997 27.8004C260.91 27.8475 261.813 28.013 262.682 28.2926C262.99 28.3861 263.223 28.4944 263.382 28.5535C263.462 28.5883 263.545 28.6163 263.63 28.6371L263.396 28.519C263.17 28.4113 262.938 28.316 262.702 28.2335C261.836 27.9154 260.928 27.7199 260.007 27.6527C258.637 27.5458 257.259 27.7012 255.948 28.1105C255.172 28.3455 254.428 28.6762 253.735 29.0949C252.996 29.5543 252.309 30.0905 251.686 30.6946C250.531 31.896 249.485 33.1955 248.559 34.5782C247.796 35.6953 246.977 36.773 246.103 37.8071C245.503 38.4907 244.839 39.1154 244.118 39.6726C243.86 39.8695 243.622 39.9975 243.503 40.0959C243.44 40.1575 243.382 40.2233 243.329 40.2928Z" fill="#455A64"/>
<path d="M244.282 41.356C244.222 42.3798 244.173 43.4578 244.649 44.3684C245.125 45.279 246.331 45.8992 247.229 45.3873C247.959 44.9738 248.177 44.0435 248.301 43.2166C248.664 40.8294 248.827 38.4126 249.204 36.0302L244.282 41.356Z" fill="#263238"/>
<path d="M263.421 28.8488C263.421 28.8488 263.089 28.7897 262.483 28.77C261.634 28.7544 260.79 28.9084 260.002 29.2229C259.452 29.4324 258.927 29.6997 258.434 30.0203C257.871 30.3962 257.33 30.8055 256.816 31.2459C255.63 32.2457 254.569 33.3826 253.655 34.6323C253.159 35.3018 252.752 35.9859 252.291 36.6012C251.855 37.2211 251.347 37.7878 250.777 38.2895C249.795 39.1128 248.723 39.8244 247.582 40.411C246.589 40.9032 245.805 41.2723 245.249 41.5185L244.604 41.7892C244.529 41.8241 244.451 41.8521 244.371 41.8729C244.371 41.8729 244.441 41.8236 244.584 41.7498L245.215 41.4397C245.761 41.1739 246.559 40.7998 247.512 40.2781C248.633 39.6809 249.684 38.9646 250.648 38.1418C251.21 37.6486 251.71 37.09 252.137 36.4782C252.589 35.8481 253.015 35.159 253.502 34.5093C254.424 33.2438 255.503 32.0979 256.712 31.0982C257.234 30.6562 257.784 30.2484 258.36 29.8775C258.865 29.5544 259.404 29.287 259.967 29.0801C260.784 28.7747 261.656 28.6406 262.528 28.6864C262.764 28.6991 262.998 28.7321 263.228 28.7848C263.294 28.8001 263.359 28.8215 263.421 28.8488Z" fill="#455A64"/>
<path d="M244.178 39.0377C244.073 39.1242 243.96 39.2 243.84 39.2641L242.883 39.8203L242.56 40.0024C242.434 40.0759 242.294 40.1228 242.148 40.1402C242.06 40.1493 241.97 40.1285 241.895 40.0812C241.855 40.0552 241.821 40.0212 241.796 39.9813C241.77 39.9415 241.753 39.8966 241.746 39.8498C241.75 39.6708 241.813 39.498 241.925 39.3576L243.036 37.5906L243.185 37.7333C242.819 38.0028 242.407 38.2061 241.97 38.3338C241.532 38.4629 241.076 38.5162 240.62 38.4913C240.503 38.4885 240.388 38.4686 240.277 38.4323C240.212 38.4147 240.152 38.3825 240.101 38.3381C240.05 38.2937 240.01 38.2384 239.985 38.1763C239.963 38.1131 239.956 38.0455 239.967 37.9794C239.977 37.9134 240.004 37.8508 240.044 37.7973C240.109 37.7134 240.183 37.636 240.263 37.566C240.759 37.0867 241.191 36.5457 241.548 35.9564C241.861 35.4001 242.135 34.8228 242.367 34.2287C242.347 34.3969 242.307 34.5622 242.247 34.7209C242.102 35.172 241.911 35.6074 241.677 36.0204C241.331 36.6349 240.9 37.1983 240.397 37.6939C240.258 37.8268 240.119 37.9794 240.173 38.0976C240.228 38.2157 240.431 38.2747 240.63 38.2747C241.499 38.3189 242.358 38.0652 243.061 37.5561L243.513 37.2263L243.21 37.7185L242.079 39.4708C241.99 39.5739 241.935 39.7007 241.92 39.8351C241.92 39.9434 242.014 40.0024 242.133 39.9926C242.376 39.9455 242.607 39.8519 242.813 39.7169L243.806 39.2247C243.92 39.1458 244.046 39.0829 244.178 39.0377Z" fill="#455A64"/>
<path d="M258.196 49.0838C258.009 48.8717 257.772 48.7093 257.506 48.6113C257.24 48.5133 256.953 48.4828 256.672 48.5227C256.468 48.5465 256.271 48.6106 256.092 48.7112C255.913 48.8118 255.756 48.9468 255.63 49.1084C255.511 49.2633 255.443 49.4511 255.436 49.646C255.429 49.8409 255.483 50.0332 255.591 50.1962C255.749 50.3542 255.95 50.4634 256.169 50.5106C256.388 50.5577 256.616 50.5409 256.826 50.462C257.259 50.295 257.655 50.0459 257.992 49.7286C258.095 49.654 258.183 49.5604 258.25 49.453C258.284 49.4027 258.302 49.3436 258.302 49.2832C258.302 49.2227 258.284 49.1636 258.25 49.1133" fill="#FF9A6C"/>
<path d="M255.799 47.5973C255.953 47.5973 255.983 48.5817 256.871 49.2413C257.76 49.9009 258.856 49.7778 258.856 49.9157C258.856 49.9747 258.623 50.1125 258.166 50.1371C257.578 50.1686 256.997 49.9945 256.524 49.6449C256.072 49.3108 255.771 48.8141 255.685 48.2618C255.641 47.8385 255.73 47.5924 255.799 47.5973Z" fill="#263238"/>
<path d="M269.902 114.224L273.961 123.325L254.241 130.649L249.825 120.854L269.902 114.224Z" fill="#263238"/>
<path d="M309.754 169.628L315.148 181.18C315.148 181.18 328.62 179.408 329.826 181.451L307.804 192.836L298.648 175.18L309.754 169.628Z" fill="#455A64"/>
<path d="M307.963 183.646C307.781 183.82 307.671 184.054 307.653 184.304C307.634 184.554 307.709 184.801 307.863 185C308.032 185.184 308.265 185.299 308.516 185.32C308.766 185.341 309.015 185.267 309.213 185.113C309.405 184.928 309.521 184.68 309.54 184.415C309.558 184.151 309.477 183.889 309.312 183.68C309.117 183.504 308.86 183.409 308.596 183.415C308.331 183.422 308.08 183.529 307.893 183.715" fill="#E0E0E0"/>
<path d="M307.799 192.836L307.074 191.452L328.675 180.826C328.933 180.848 329.183 180.922 329.411 181.044C329.639 181.166 329.839 181.333 330 181.534L307.799 192.836Z" fill="#263238"/>
<path d="M315.391 181.15C315.441 181.259 314.92 181.584 314.562 182.199C314.205 182.814 314.151 183.42 314.027 183.429C313.902 183.439 313.744 182.725 314.195 181.987C314.647 181.249 315.361 181.037 315.391 181.15Z" fill="#263238"/>
<path d="M318.224 180.929C318.304 181.022 317.927 181.446 317.793 182.091C317.659 182.735 317.793 183.272 317.683 183.321C317.574 183.37 317.187 182.794 317.376 181.997C317.564 181.2 318.165 180.826 318.224 180.929Z" fill="#263238"/>
<path d="M320.984 183.045C320.899 183.114 320.487 182.652 320.443 181.918C320.398 181.185 320.81 180.688 320.904 180.757C320.999 180.826 320.845 181.298 320.87 181.903C320.894 182.509 321.088 182.977 320.984 183.045Z" fill="#263238"/>
<path d="M313.853 178.655C313.853 178.773 313.282 178.876 312.686 179.231C312.091 179.585 311.694 180.018 311.6 179.954C311.505 179.89 311.764 179.27 312.468 178.867C313.173 178.463 313.863 178.522 313.853 178.655Z" fill="#263238"/>
<path d="M312.999 175.987C312.999 176.031 312.627 176.317 311.878 176.548C311.438 176.681 310.983 176.758 310.523 176.78C310.252 176.799 309.98 176.799 309.709 176.78C309.54 176.775 309.373 176.745 309.213 176.691C309.101 176.651 309.006 176.575 308.943 176.475C308.881 176.375 308.853 176.257 308.866 176.14C308.882 176.036 308.922 175.937 308.983 175.852C309.044 175.766 309.125 175.696 309.218 175.647C309.359 175.575 309.509 175.523 309.665 175.495C309.934 175.434 310.208 175.396 310.484 175.382C310.949 175.361 311.414 175.412 311.863 175.534C312.622 175.751 313.009 176.066 312.98 176.105C312.95 176.145 312.523 175.953 311.794 175.825C311.369 175.752 310.937 175.734 310.508 175.77C310.259 175.793 310.011 175.836 309.769 175.898C309.496 175.953 309.273 176.056 309.273 176.189C309.273 176.243 309.273 176.258 309.362 176.302C309.474 176.34 309.591 176.361 309.709 176.366C309.963 176.394 310.218 176.407 310.474 176.405C310.907 176.399 311.339 176.355 311.764 176.273C312.168 176.148 312.581 176.053 312.999 175.987Z" fill="#263238"/>
<path d="M288.798 188.189L288.113 200.903C288.113 200.903 300.852 205.594 300.956 207.957L276.12 207.794L276.363 187.943L288.798 188.189Z" fill="#455A64"/>
<path d="M280.601 199.751C280.357 199.818 280.148 199.973 280.013 200.185C279.878 200.397 279.828 200.651 279.871 200.898C279.934 201.14 280.086 201.349 280.298 201.483C280.51 201.617 280.765 201.667 281.013 201.622C281.27 201.548 281.49 201.382 281.631 201.157C281.772 200.931 281.824 200.662 281.777 200.401C281.688 200.154 281.505 199.951 281.268 199.836C281.031 199.72 280.758 199.7 280.506 199.781" fill="#E0E0E0"/>
<path d="M276.12 207.794V206.214L300.221 206.849C300.439 206.988 300.626 207.17 300.77 207.383C300.914 207.597 301.013 207.837 301.06 208.089L276.12 207.794Z" fill="#263238"/>
<path d="M288.337 200.987C288.337 201.11 287.722 201.154 287.111 201.533C286.501 201.912 286.173 202.419 286.059 202.37C285.945 202.321 286.144 201.622 286.888 201.174C287.632 200.726 288.392 200.878 288.337 200.987Z" fill="#263238"/>
<path d="M290.952 202.109C290.977 202.232 290.456 202.429 290.019 202.936C289.582 203.443 289.463 203.979 289.339 203.974C289.215 203.97 289.156 203.28 289.692 202.66C290.227 202.04 290.952 201.996 290.952 202.109Z" fill="#263238"/>
<path d="M292.391 205.259C292.277 205.284 292.118 204.673 292.446 204.014C292.773 203.354 293.349 203.098 293.398 203.202C293.448 203.305 293.086 203.655 292.828 204.186C292.57 204.718 292.51 205.235 292.391 205.259Z" fill="#263238"/>
<path d="M288.168 198.053C288.113 198.161 287.557 197.984 286.863 198.019C286.168 198.053 285.627 198.26 285.568 198.156C285.508 198.053 286.029 197.625 286.848 197.595C287.667 197.566 288.232 197.96 288.168 198.053Z" fill="#263238"/>
<path d="M288.664 195.321C288.25 195.422 287.817 195.411 287.409 195.292C286.956 195.204 286.517 195.061 286.099 194.868C285.852 194.753 285.613 194.622 285.384 194.475C285.245 194.395 285.119 194.294 285.012 194.174C284.933 194.087 284.886 193.976 284.878 193.86C284.87 193.743 284.901 193.627 284.967 193.53C285.03 193.446 285.112 193.379 285.206 193.332C285.3 193.285 285.403 193.26 285.508 193.259C285.668 193.263 285.826 193.288 285.98 193.333C286.698 193.528 287.356 193.896 287.895 194.406C288.466 194.952 288.659 195.39 288.615 195.43C288.57 195.469 288.282 195.085 287.697 194.632C287.357 194.372 286.985 194.155 286.59 193.987C286.357 193.89 286.117 193.812 285.87 193.756C285.607 193.682 285.374 193.677 285.31 193.79C285.245 193.904 285.28 193.854 285.335 193.933C285.417 194.017 285.511 194.09 285.612 194.15C285.824 194.291 286.042 194.421 286.267 194.539C286.654 194.738 287.057 194.902 287.473 195.031C287.877 195.098 288.275 195.196 288.664 195.321Z" fill="#263238"/>
<path d="M231.995 127.154C231.995 127.154 281.762 120.972 284.694 120.972C291.577 120.972 295.899 126.175 296.926 130.191C297.685 133.145 313.004 176.09 313.004 176.09L301.705 181.899L285.086 152.607L276.616 137.993L232.948 144.682L231.995 127.154Z" fill="#263238"/>
<path d="M278.671 136.644C278.671 136.644 285.494 136.644 289.176 142.059C291.339 145.243 290.58 150.918 290.625 155.216C290.684 161.058 289.26 196.655 289.26 196.655L275.311 196.887L272.388 159.788L272.557 152.932L244.724 150.677C244.724 150.677 242.188 142.31 248.426 135.694C249.19 134.848 278.671 136.644 278.671 136.644Z" fill="#263238"/>
<path d="M236.248 115.218C236.248 115.218 225.247 132.012 231.995 144.633C235.211 150.643 244.833 150.638 244.833 150.638L254.703 138.382V118.112L236.248 115.218Z" fill="#263238"/>
<path d="M244.833 150.638C244.892 150.6 244.956 150.567 245.021 150.539L245.577 150.283L247.721 149.299L255.66 145.799L267.416 140.646L274.363 137.609C274.973 137.358 275.559 137.058 276.204 136.841C276.85 136.62 277.514 136.455 278.189 136.349C279.567 136.145 280.966 136.134 282.347 136.314C283.733 136.478 285.085 136.856 286.352 137.437C286.974 137.727 287.552 138.104 288.069 138.554C288.571 139.008 288.998 139.538 289.334 140.124C289.991 141.257 290.389 142.519 290.5 143.821C290.555 144.461 290.5 145.076 290.5 145.691C290.5 146.306 290.5 146.912 290.5 147.512C290.441 152.311 290.391 156.628 290.351 160.261C290.312 163.893 290.257 166.812 290.227 168.855C290.227 169.839 290.193 170.642 290.183 171.193C290.183 171.449 290.183 171.651 290.183 171.798C290.188 171.867 290.188 171.936 290.183 172.005C290.178 171.936 290.178 171.867 290.183 171.798C290.183 171.651 290.183 171.449 290.183 171.193C290.183 170.642 290.183 169.859 290.183 168.855C290.183 166.812 290.183 163.879 290.217 160.261C290.252 156.643 290.272 152.307 290.307 147.512C290.307 146.912 290.307 146.306 290.307 145.691C290.307 145.076 290.336 144.451 290.282 143.84C290.174 142.579 289.786 141.357 289.145 140.262C288.825 139.7 288.416 139.191 287.935 138.756C287.437 138.323 286.879 137.963 286.277 137.688C285.038 137.119 283.717 136.747 282.362 136.585C281.007 136.409 279.635 136.421 278.283 136.62C277.625 136.728 276.977 136.892 276.348 137.112C275.728 137.323 275.127 137.604 274.522 137.875L267.575 140.897L255.799 145.996L247.86 149.412L245.691 150.328L245.125 150.559C245.033 150.601 244.934 150.627 244.833 150.638Z" fill="#455A64"/>
<path d="M283.712 120.972C283.712 121.041 273.266 122.207 260.365 123.576C247.463 124.944 236.997 125.998 236.987 125.929C236.977 125.86 247.433 124.693 260.335 123.325C273.237 121.956 283.702 120.903 283.712 120.972Z" fill="#455A64"/>
<path d="M271.411 96.504C272.22 93.9494 275.048 84.548 274.413 79.5914C273.917 75.6537 270.329 70.5641 269.262 67.857C268.766 66.5821 264.741 65.2679 262.345 64.564L259.963 61.7732L259.764 63.1366C259.062 63.933 258.183 64.5562 257.196 64.9569C256.209 65.3576 255.141 65.5247 254.078 65.4451C250.539 65.1301 247.627 63.6977 245.706 61.5812C236.516 64.3622 236.546 64.9824 234.789 65.6764C232.517 66.5723 239.315 88.1756 239.315 88.1756C239.315 88.1756 241.751 101.746 239.459 106.319C238.169 108.893 236.675 111.832 235.578 114.224C235.578 114.224 232.521 120.002 233.176 119.855C234.551 119.54 244.093 121.824 253.06 122.316C269.639 123.182 272.81 120.746 272.81 120.746C271.942 116.537 270.488 101.785 270.493 98.9207C270.483 98.4236 271.267 96.9469 271.411 96.504Z" fill="#FF8184"/>
<path d="M260.255 62.4475C260.255 62.4475 271.058 65.2088 272.115 66.6363C274.988 70.51 292.297 97.0159 283.801 104.921C278.234 110.099 270.403 99.1718 270.403 99.1718L260.255 62.4475Z" fill="#FF8184"/>
<path d="M282.764 93.6638C282.508 93.6415 282.254 93.5987 282.005 93.5359L279.936 93.1126C278.174 92.7582 275.708 92.2561 272.879 91.8525L273.028 91.7688L272.18 93.846L270.165 98.7238V98.6008L273.291 102.322L274.16 103.385C274.268 103.507 274.364 103.639 274.448 103.779C274.448 103.779 275.246 104.143 274.1 103.434L273.172 102.415L269.967 98.7583L269.917 98.6992L269.947 98.6352L271.932 93.7426C272.224 93.0338 272.512 92.3398 272.785 91.6704L272.825 91.5719H272.939C275.782 91.9903 278.244 92.5219 279.995 92.9255C280.874 93.1273 281.568 93.2996 282.05 93.4177C282.294 93.4823 282.532 93.5646 282.764 93.6638Z" fill="#263238"/>
<path d="M272.373 92.4186C272.374 92.1264 272.401 91.8349 272.452 91.5473C272.532 90.9468 272.631 90.1494 272.755 89.1896C273.126 86.611 273.214 84.0002 273.018 81.4027C272.749 78.8039 271.991 76.278 270.785 73.9555C270.334 73.0597 269.922 72.3509 269.634 71.8636C269.472 71.6181 269.328 71.3615 269.202 71.0957C269.202 71.0957 269.262 71.1548 269.351 71.2729C269.44 71.3911 269.569 71.5732 269.728 71.8094C270.046 72.3017 270.482 72.976 270.964 73.8718C272.235 76.196 273.028 78.7475 273.296 81.3781C273.495 83.9946 273.379 86.6252 272.949 89.2142C272.805 90.1987 272.661 91.0108 272.562 91.5621C272.522 91.8521 272.459 92.1385 272.373 92.4186Z" fill="#263238"/>
<g opacity="0.3">
<path d="M236.987 112.206L257.437 102.854L256.052 98.842L259.198 97.6508L264.324 98.3153C265.592 98.4813 266.881 98.3553 268.092 97.9473C269.303 97.5393 270.403 96.8601 271.306 95.9625L258.568 92.768L244.039 95.8395L240.347 85.2224L239.434 88.3332L240.193 95.0125L240.689 102.228L236.987 112.206Z" fill="#222222"/>
</g>
<path d="M235.037 65.5681C233.778 66.1155 232.656 66.9325 231.751 67.9604C230.847 68.9883 230.183 70.2019 229.807 71.5141C229.105 73.0677 228.573 74.6914 228.219 76.3575C226.497 83.8884 222.761 98.0151 222.622 101.785C222.354 108.568 227.793 110.493 230.73 111.083C233.668 111.674 254.053 101.21 254.053 101.21L249.815 89.7852L237.355 94.8993C237.355 94.8993 240.198 86.1871 241.022 82.6234C241.846 79.0598 235.037 65.5681 235.037 65.5681Z" fill="#FF8184"/>
<path d="M272.954 90.5088C272.706 89.3899 272.667 88.2353 272.84 87.1026C272.983 86.4228 273.008 85.7236 272.914 85.0353C272.785 84.361 272.15 83.6473 271.46 83.7014L270.418 88.6679L272.954 90.5088Z" fill="#FFBF9D"/>
<path d="M272.472 78.8531L268.805 96.4055L260.106 95.8838L262.682 78.5184C262.715 78.2971 262.828 78.0951 262.999 77.9496C263.171 77.804 263.389 77.7246 263.615 77.7259H271.554C271.695 77.7257 271.833 77.7566 271.959 77.8164C272.086 77.8763 272.197 77.9635 272.285 78.0716C272.373 78.1797 272.436 78.306 272.468 78.4413C272.501 78.5765 272.502 78.7172 272.472 78.8531Z" fill="#263238"/>
<path d="M262.692 83.4159C262.751 83.2562 262.796 83.0915 262.826 82.9237C262.9 82.5545 263 82.0771 263.119 81.5012L263.531 79.3945C263.531 79.2961 263.565 79.1878 263.59 79.109C263.623 79.0242 263.676 78.9483 263.744 78.8875C263.813 78.8222 263.899 78.7777 263.992 78.7596C264.094 78.7517 264.197 78.7517 264.3 78.7596H265.674C267.555 78.7596 269.262 78.73 270.493 78.7103L271.981 78.671C272.161 78.6771 272.34 78.6639 272.517 78.6316C272.339 78.6096 272.16 78.5997 271.981 78.602H270.493C269.262 78.602 267.555 78.602 265.674 78.602H264.3C264.184 78.5905 264.068 78.5905 263.952 78.602C263.833 78.6279 263.721 78.6838 263.63 78.7645C263.541 78.8456 263.472 78.9469 263.431 79.0598C263.403 79.1635 263.379 79.2687 263.362 79.3748C263.223 80.1624 263.099 80.8761 262.99 81.4914L262.756 82.9188C262.722 83.0825 262.7 83.2488 262.692 83.4159Z" fill="#455A64"/>
<path d="M267.341 79.5865C267.379 79.4917 267.45 79.4136 267.541 79.3666C267.633 79.3196 267.738 79.3068 267.838 79.3305C267.917 79.3515 267.988 79.3947 268.042 79.455C268.097 79.5153 268.133 79.5901 268.145 79.6701C268.148 79.7576 268.128 79.8442 268.086 79.9212C268.044 79.9982 267.983 80.0628 267.907 80.1082C267.83 80.1512 267.741 80.17 267.652 80.1621C267.564 80.1542 267.48 80.12 267.411 80.0639C267.348 80.0028 267.308 79.923 267.295 79.8368C267.283 79.7506 267.299 79.6627 267.341 79.5865Z" fill="#FAFAFA"/>
<path d="M267.58 84.8827C267.783 84.9319 272.383 87.2897 272.383 87.2897L274.785 89.8C274.785 89.8 275.653 91.2766 274.949 93.5211C274.244 95.7656 273.098 96.5876 270.453 97.2373L265.456 96.4547L262.925 94.3973C262.683 94.1983 262.507 93.9322 262.419 93.6332C262.33 93.3342 262.334 93.0158 262.429 92.7188L262.464 92.6154L262.176 92.1232C262.088 91.9773 262.046 91.8089 262.053 91.6391C262.061 91.4693 262.12 91.3056 262.221 91.1683C262.357 90.9843 262.562 90.8615 262.79 90.8264C263.017 90.7914 263.25 90.847 263.436 90.9813L266.285 93.0486L268.245 93.3045L268.538 92.6696L265.664 91.1929L262.012 88.3873C261.897 88.2996 261.801 88.1895 261.73 88.064C261.659 87.9384 261.615 87.7998 261.6 87.6567C261.584 87.5136 261.599 87.3688 261.641 87.2313C261.684 87.0937 261.755 86.9662 261.848 86.8565C262.012 86.6649 262.239 86.5371 262.489 86.4956C262.739 86.4542 262.995 86.5018 263.213 86.6301L266.607 88.5989L270.15 90.1494L269.59 88.7515L265.426 85.6949C265.426 85.6949 265.069 84.2527 267.58 84.8827Z" fill="#FFBF9D"/>
<path d="M267.163 82.4758C267.163 82.4758 266.205 81.9294 264.612 82.5841C263.019 83.2387 260.985 84.2281 260.985 84.2281L257.933 85.0894L258.295 84.3413C258.295 84.3413 261.308 84.6465 261.164 82.4709L259.347 82.5496L257.789 81.7571L254.718 84.7104L253.561 88.8992L250.182 90.6416L252.837 97.8083L257.606 95.1848L263.56 95.0716L265.749 93.3144L265.992 91.0846L268.136 88.9189C268.136 88.9189 268.404 87.836 267.416 87.7326C266.429 87.6293 264.052 89.9722 264.052 89.9722L261.665 90.0264C261.665 90.0264 261.258 89.6572 261.59 89.4456C261.923 89.2339 268.954 85.8081 269.267 85.0402C269.58 84.2724 269.902 83.7703 269.202 83.5636C268.577 83.4705 267.938 83.5314 267.342 83.7408C267.342 83.7408 267.694 82.6431 267.163 82.4758Z" fill="#FFBF9D"/>
<path d="M261.332 86.7581C262.401 86.3201 263.446 85.8272 264.463 85.2814C265.508 84.7986 266.527 84.2613 267.515 83.6719C266.446 84.1007 265.401 84.5854 264.384 85.1239C263.338 85.6135 262.319 86.159 261.332 86.7581Z" fill="#FF9A6C"/>
<path d="M259.913 92.325C260.027 92.3781 260.147 92.4162 260.27 92.4382C260.504 92.4973 260.846 92.5859 261.263 92.6597C261.765 92.751 262.276 92.7857 262.786 92.7631C263.417 92.7293 264.033 92.5615 264.592 92.2709C265.587 91.7196 266.45 90.9625 267.123 90.051C267.386 89.7114 267.59 89.4308 267.724 89.2339C267.802 89.1354 267.869 89.028 267.922 88.914C267.601 89.2497 267.3 89.6031 267.019 89.9722C266.333 90.8418 265.482 91.5693 264.513 92.1134C263.974 92.3941 263.383 92.5617 262.776 92.6056C262.279 92.6363 261.78 92.6149 261.288 92.5416C260.444 92.4087 259.918 92.2955 259.913 92.325Z" fill="#FF9A6C"/>
<path d="M250.182 90.6416L250.396 90.5186L251.041 90.1691L253.522 88.8598L253.492 88.8943L254.623 84.6957L257.68 81.7424L257.73 81.6931L257.789 81.7276L259.352 82.5151H259.303L261.119 82.4315H261.228V82.5348C261.257 82.8744 261.19 83.2153 261.035 83.5193C260.856 83.7934 260.603 84.0118 260.305 84.1493C259.662 84.4264 258.958 84.5349 258.261 84.4643L258.375 84.4003L258.018 85.1534L257.879 84.991L260.93 84.1198L263.908 82.776C264.86 82.2838 266.086 81.8507 267.252 82.3626C267.322 82.3879 267.386 82.4271 267.44 82.4779C267.493 82.5288 267.536 82.59 267.565 82.6579C267.616 82.7794 267.642 82.9101 267.639 83.0418C267.642 83.2917 267.607 83.5405 267.535 83.7801L267.371 83.6226C267.725 83.5102 268.089 83.4327 268.458 83.3913C268.859 83.3199 269.273 83.3933 269.624 83.598C269.725 83.6739 269.792 83.7847 269.813 83.9081C269.833 84.0171 269.833 84.1289 269.813 84.2379C269.759 84.4241 269.692 84.6066 269.614 84.7843L269.505 85.0451C269.482 85.0962 269.456 85.1456 269.426 85.1928C269.392 85.2359 269.355 85.277 269.317 85.3159C269.171 85.4489 269.017 85.5722 268.855 85.685C267.594 86.4914 266.292 87.234 264.955 87.9098L263.015 88.8943C262.697 89.0616 262.379 89.2191 262.062 89.3865C261.918 89.4652 261.704 89.5538 261.685 89.6178C261.665 89.6818 261.739 89.8393 261.843 89.9378L261.754 89.9033L264.141 89.8492L264.057 89.8836C264.757 89.1923 265.525 88.5723 266.349 88.0329C266.556 87.9016 266.775 87.7911 267.004 87.7031C267.248 87.6056 267.517 87.5934 267.768 87.6687C267.898 87.7075 268.016 87.7771 268.112 87.8715C268.208 87.9659 268.279 88.0821 268.319 88.2101C268.381 88.4524 268.381 88.7061 268.319 88.9484V88.9779L266.061 91.1585L266.091 91.0945C266.007 91.8623 265.922 92.6056 265.843 93.3291V93.3685L265.813 93.3931L263.615 95.1405H263.59H263.58L257.601 95.234H257.635L254.087 97.1487L253.155 97.641L252.916 97.764C252.862 97.7935 252.832 97.8034 252.832 97.7985L252.906 97.7492L253.14 97.6114L254.053 97.0897L257.571 95.1208H257.601L263.555 94.983H263.501L265.684 93.2209L265.645 93.2898C265.724 92.5711 265.803 91.8279 265.883 91.06V91.0403L265.908 91.0157L268.046 88.845L268.016 88.8992C268.106 88.5005 268.016 87.9984 267.6 87.9148C267.382 87.8842 267.161 87.8991 266.95 87.9585C266.739 88.0178 266.543 88.1203 266.374 88.2593C265.566 88.7898 264.815 89.4 264.131 90.0805L264.096 90.115H264.076L261.695 90.179H261.64L261.605 90.1445C261.53 90.0743 261.467 89.9929 261.417 89.9033C261.386 89.8492 261.367 89.789 261.362 89.7269C261.357 89.6649 261.365 89.6024 261.387 89.544C261.443 89.4412 261.532 89.3598 261.64 89.3127L261.878 89.1896L262.831 88.6974L264.766 87.713C266.093 87.0401 267.385 86.3008 268.637 85.498C268.78 85.3866 268.914 85.2648 269.039 85.1337C269.068 85.1067 269.094 85.0771 269.118 85.0451C269.14 85.0151 269.156 84.9818 269.168 84.9467L269.282 84.6858C269.411 84.361 269.609 83.9475 269.386 83.7998C269.083 83.6365 268.732 83.5825 268.394 83.6472C268.043 83.6838 267.697 83.7563 267.361 83.8638L267.133 83.9377L267.198 83.7063C267.261 83.492 267.292 83.2699 267.292 83.0467C267.292 82.8302 267.218 82.6431 267.079 82.6037C266.577 82.4001 266.025 82.3521 265.496 82.4659C264.961 82.5837 264.446 82.7725 263.962 83.0271L261.02 84.356L257.963 85.2174L257.715 85.2863L257.829 85.055L258.191 84.3068L258.221 84.2379H258.305C258.959 84.3049 259.62 84.2067 260.226 83.9524C260.501 83.8201 260.731 83.6093 260.886 83.347C261.018 83.0816 261.076 82.7859 261.054 82.4905L261.169 82.589L259.352 82.6628H259.323L257.764 81.8605H257.879L254.802 84.8138V84.7793C254.34 86.4135 253.944 87.8262 253.621 88.9632V88.9878L251.1 90.2528L250.445 90.5727L250.182 90.6416Z" fill="#FF9A6C"/>
<path d="M237.359 109.11C237.459 109.046 237.564 108.99 237.672 108.942L238.59 108.489L242.064 106.845L254.028 101.234L253.963 101.387C253.189 99.2899 252.355 97.0208 251.482 94.6729C250.877 93.0092 250.281 91.3898 249.71 89.8246L249.879 89.8984L237.687 94.9781H237.662C236.663 95.0638 235.68 95.2824 234.739 95.6278C234.032 95.886 233.387 96.2865 232.844 96.8042C232.5 97.1324 232.227 97.5258 232.04 97.9609C231.98 98.1086 231.946 98.2267 231.921 98.3055C231.915 98.3478 231.903 98.3892 231.886 98.4285C231.877 98.3863 231.877 98.3428 231.886 98.3005C231.91 98.1785 231.943 98.0583 231.985 97.9412C232.157 97.4906 232.42 97.0801 232.759 96.7353C233.305 96.1955 233.957 95.7732 234.675 95.4949C235.63 95.1279 236.632 94.8943 237.652 94.8009H237.622L249.78 89.6572L249.904 89.608L249.949 89.7311C250.524 91.2963 251.12 92.9157 251.725 94.5745C252.589 96.9223 253.417 99.1964 254.206 101.293L254.246 101.402L254.142 101.451L242.143 106.973L238.669 108.558L237.732 108.972C237.61 109.025 237.486 109.071 237.359 109.11Z" fill="#263238"/>
<path d="M241.518 77.7505C241.223 77.2825 240.953 76.7994 240.709 76.3034C240.213 75.4026 239.508 74.1869 238.63 72.8973C237.751 71.6076 236.873 70.5051 236.213 69.7175C235.839 69.3103 235.488 68.8831 235.161 68.4378C235.161 68.4378 235.295 68.5264 235.504 68.7282C235.712 68.93 236 69.2204 236.352 69.5994C238.159 71.5889 239.681 73.8167 240.873 76.2197C241.096 76.6775 241.27 77.0565 241.369 77.3272C241.44 77.46 241.49 77.6027 241.518 77.7505Z" fill="#263238"/>
<path d="M242.009 80.1624C241.989 80.3756 241.942 80.5855 241.87 80.7875C241.761 81.1812 241.597 81.7719 241.374 82.4462C240.952 83.8491 240.352 85.7785 239.667 87.9C238.982 90.0214 238.327 91.9362 237.836 93.3144C237.588 93.9986 237.385 94.5548 237.231 94.9387C237.167 95.1415 237.081 95.3364 236.973 95.5195C237.008 95.3099 237.063 95.1039 237.136 94.9042C237.275 94.4662 237.454 93.9198 237.662 93.2553C238.129 91.8131 238.739 89.9181 239.419 87.8409C240.099 85.7638 240.729 83.854 241.201 82.4266L241.761 80.7924C241.822 80.5744 241.905 80.3632 242.009 80.1624Z" fill="#263238"/>
</g>
<defs>
<clipPath id="clip0_6920_1442">
<rect width="330" height="209" fill="white"/>
</clipPath>
</defs>
</svg>
