<svg width="293" height="225" viewBox="0 0 293 225" fill="none" xmlns="http://www.w3.org/2000/svg">
<g clip-path="url(#clip0_7431_24401)">
<path d="M146.5 225C209.25 225 260.119 222.029 260.119 218.365C260.119 214.7 209.25 211.729 146.5 211.729C83.7496 211.729 32.8804 214.7 32.8804 218.365C32.8804 222.029 83.7496 225 146.5 225Z" fill="#F5F5F5"/>
<path d="M139.702 165.764H26.5516C25.6647 165.762 24.8145 165.409 24.1873 164.782C23.5601 164.154 23.2071 163.304 23.2056 162.417V3.31762C23.2148 2.43552 23.5712 1.59262 24.1976 0.9716C24.8239 0.350582 25.6697 0.00149368 26.5516 0H139.702C140.589 0.00155279 141.438 0.35486 142.065 0.982362C142.691 1.60986 143.043 2.46028 143.043 3.34692V162.417C143.043 163.303 142.691 164.154 142.065 164.781C141.438 165.409 140.589 165.762 139.702 165.764ZM26.5516 0.117231C25.7035 0.11878 24.8906 0.45646 24.2909 1.05631C23.6912 1.65617 23.3536 2.4693 23.3521 3.31762V162.417C23.3536 163.265 23.6912 164.078 24.2909 164.678C24.8906 165.278 25.7035 165.615 26.5516 165.617H139.702C140.55 165.615 141.362 165.278 141.961 164.678C142.56 164.078 142.896 163.264 142.896 162.417V3.31762C142.896 2.46984 142.56 1.65669 141.961 1.05667C141.362 0.456652 140.55 0.118783 139.702 0.117231H26.5516Z" fill="#E6E6E6"/>
<path d="M266.454 165.764H153.298C152.411 165.762 151.562 165.409 150.935 164.781C150.309 164.154 149.958 163.303 149.958 162.417V3.31762C149.965 2.43606 150.32 1.59315 150.946 0.971969C151.571 0.350789 152.416 0.00151015 153.298 0H266.454C267.336 0.00151015 268.181 0.350789 268.806 0.971969C269.432 1.59315 269.787 2.43606 269.795 3.31762V162.417C269.795 163.303 269.443 164.154 268.817 164.781C268.19 165.409 267.341 165.762 266.454 165.764ZM153.298 0.117231C152.45 0.118783 151.638 0.456652 151.039 1.05667C150.44 1.65669 150.104 2.46984 150.104 3.31762V162.417C150.104 163.264 150.44 164.078 151.039 164.678C151.638 165.278 152.45 165.615 153.298 165.617H266.454C267.303 165.615 268.116 165.278 268.717 164.678C269.318 164.079 269.657 163.265 269.66 162.417V3.31762C269.657 2.46876 269.318 1.65564 268.717 1.05595C268.116 0.456266 267.303 0.118774 266.454 0.117231H153.298Z" fill="#E6E6E6"/>
<path d="M50.361 195.47H26.2119V195.616H50.361V195.47Z" fill="#E0E0E0"/>
<path d="M99.5846 194.297H75.3652V194.444H99.5846V194.297Z" fill="#E0E0E0"/>
<path d="M131.1 194.297H125.24V194.444H131.1V194.297Z" fill="#E0E0E0"/>
<path d="M72.5293 199.303H45.4268V199.45H72.5293V199.303Z" fill="#E0E0E0"/>
<path d="M166.272 195.394H153.614V195.54H166.272V195.394Z" fill="#E0E0E0"/>
<path d="M187.854 195.394H171.487V195.54H187.854V195.394Z" fill="#E0E0E0"/>
<path d="M266.788 197.873H230.198V198.019H266.788V197.873Z" fill="#E0E0E0"/>
<path d="M293 189.72H0V189.866H293V189.72Z" fill="#EBEBEB"/>
<path opacity="0.8" d="M196.21 12.1626L194.751 32.2559C194.702 32.9368 194.413 33.5783 193.937 34.0671C193.665 34.3567 193.338 34.5882 192.974 34.7474C192.611 34.9066 192.218 34.9902 191.821 34.9932H175.712C175.36 34.9968 175.012 34.927 174.688 34.7882C174.365 34.6494 174.074 34.4447 173.834 34.1871C173.594 33.9295 173.411 33.6247 173.295 33.2922C173.18 32.9597 173.135 32.6067 173.163 32.2559L174.628 12.1626C174.688 11.4233 175.021 10.7329 175.563 10.2266C176.105 9.72031 176.817 9.43456 177.558 9.42529H193.667C194.019 9.4198 194.369 9.4884 194.693 9.62664C195.017 9.76488 195.308 9.96968 195.548 10.2278C195.788 10.4859 195.971 10.7915 196.085 11.1248C196.199 11.4581 196.242 11.8117 196.21 12.1626Z" fill="#E0E0E0"/>
<path d="M189.109 22.1549C189.72 19.2334 188.297 16.4636 185.931 15.9683C183.564 15.4729 181.151 17.4397 180.539 20.3611C179.928 23.2825 181.351 26.0524 183.717 26.5477C186.084 27.0431 188.497 25.0763 189.109 22.1549Z" fill="white"/>
<path d="M191.259 33.6099H176.515C175.577 33.6099 174.933 33.1586 174.909 32.5314C174.874 31.617 179.656 27.6605 184.192 28.0063H184.297C187.084 28.1051 189.756 29.1372 191.886 30.9371C194.077 32.6604 192.009 33.6099 191.259 33.6099Z" fill="white"/>
<path d="M113.098 34.2606C111.557 34.2545 110.074 33.6759 108.936 32.6371C107.797 31.5983 107.086 30.1735 106.939 28.6394C106.871 27.9108 106.955 27.1759 107.186 26.4816C107.417 25.7872 107.79 25.1485 108.281 24.6061C108.772 24.0636 109.37 23.6293 110.038 23.3307C110.706 23.0321 111.429 22.8758 112.16 22.8716C113.701 22.8777 115.185 23.4563 116.323 24.4951C117.461 25.5339 118.172 26.9587 118.319 28.4928C118.387 29.2214 118.303 29.9563 118.073 30.6506C117.842 31.345 117.469 31.9837 116.978 32.5262C116.487 33.0686 115.888 33.5029 115.22 33.8015C114.552 34.1001 113.829 34.2564 113.098 34.2606ZM112.412 25.8962C112.069 25.8962 111.729 25.9681 111.415 26.1073C111.101 26.2465 110.82 26.4499 110.589 26.7044C110.358 26.9589 110.183 27.2589 110.075 27.5851C109.968 27.9113 109.929 28.2564 109.963 28.5983C110.035 29.3167 110.37 29.9832 110.903 30.47C111.436 30.9568 112.13 31.2295 112.852 31.236C113.195 31.2352 113.534 31.1627 113.847 31.0232C114.16 30.8836 114.441 30.6801 114.671 30.4257C114.901 30.1712 115.076 29.8715 115.183 29.5457C115.291 29.22 115.329 28.8753 115.295 28.5339C115.224 27.8184 114.891 27.1544 114.362 26.668C113.832 26.1817 113.143 25.907 112.424 25.8962H112.412Z" fill="#E0E0E0"/>
<path d="M113.391 25.4565L111.235 25.4859L110.086 11.5823L112.248 11.5589L113.391 25.4565Z" fill="#E0E0E0"/>
<path d="M114.293 12.1802L110.238 12.233L110.062 10.0701L114.118 10.0173L114.293 12.1802Z" fill="#E0E0E0"/>
<path d="M114.528 14.9586L110.713 15.0054L110.537 12.8425L114.346 12.7957L114.528 14.9586Z" fill="#E0E0E0"/>
<path d="M114.856 18.8741L111.527 18.9151L111.346 16.7581L114.674 16.717L114.856 18.8741Z" fill="#E0E0E0"/>
<path d="M46.4758 152.423C46.4882 152.598 46.5097 152.772 46.5402 152.944C46.7422 154.069 47.3036 155.097 48.14 155.875C49.0901 156.777 50.3462 157.286 51.656 157.3H101.167C102.34 157.318 103.474 156.874 104.321 156.061C105.168 155.249 105.66 154.135 105.691 152.962C105.704 152.267 105.58 151.576 105.325 150.929C105.07 150.282 104.69 149.692 104.207 149.192C103.723 148.693 103.146 148.294 102.507 148.018C101.869 147.743 101.182 147.596 100.487 147.587H50.9821C50.3599 147.579 49.7429 147.702 49.1707 147.946C48.5985 148.191 48.0837 148.552 47.6594 149.008C47.2351 149.463 46.9106 150.002 46.7068 150.59C46.503 151.178 46.4243 151.802 46.4758 152.423Z" fill="#F0F0F0"/>
<path d="M105.708 152.944C105.705 153.102 105.689 153.258 105.661 153.413C105.519 152.134 104.913 150.951 103.959 150.088C103.005 149.224 101.768 148.739 100.481 148.724L47.8291 148.806C48.6797 147.991 49.8154 147.541 50.9935 147.552H100.505C101.204 147.547 101.897 147.683 102.542 147.954C103.187 148.224 103.77 148.623 104.257 149.125C104.743 149.628 105.123 150.224 105.372 150.877C105.622 151.531 105.736 152.228 105.708 152.927V152.944Z" fill="#E0E0E0"/>
<path d="M97.2348 149.908L97.3989 152.253L99.6198 151.426L100.124 152.599L97.8618 153.372L99.444 155.359L98.4478 156.11L96.9066 154.046L95.676 156.11L94.5802 155.359L95.8635 153.372L93.5195 152.628L93.8536 151.456L96.1976 152.253L96.0335 149.908H97.2348Z" fill="white"/>
<path d="M83.6923 149.908L83.8622 152.253L86.0773 151.426L86.5813 152.599L84.3135 153.343L85.9015 155.33L84.876 156.08L83.3348 154.017L82.1042 156.08L81.0084 155.33L82.2918 153.343L79.9478 152.599L80.2876 151.426L82.6316 152.224L82.4676 149.879L83.6923 149.908Z" fill="white"/>
<path d="M70.1557 149.908L70.3198 152.253L72.5407 151.426L73.0447 152.599L70.7768 153.343L72.359 155.33L71.3335 156.08L69.7924 154.017L68.5618 156.08L67.4659 155.33L68.7493 153.343L66.4053 152.599L66.7452 151.426L69.0892 152.224L68.9251 149.879L70.1557 149.908Z" fill="white"/>
<path d="M56.6137 149.908L56.7778 152.253L58.9987 151.426L59.5027 152.599L57.2348 153.343L58.817 155.33L57.7974 156.08L56.2562 154.046L55.0198 156.11L53.9122 155.359L55.2014 153.372L52.8574 152.628L53.1973 151.456L55.5413 152.253L55.3772 149.908H56.6137Z" fill="white"/>
<path d="M89.5056 145.858H87.1968L87.2026 145.272H89.5115L89.5056 145.858Z" fill="#E0E0E0"/>
<path d="M99.4266 145.858H91.8965L91.9082 145.272H99.4383L99.4266 145.858Z" fill="#E0E0E0"/>
<g opacity="0.8">
<path d="M157.856 142.904L167.197 157.282L197.997 126.474C198.027 126.447 198.052 126.415 198.07 126.379C198.087 126.343 198.097 126.304 198.1 126.264C198.102 126.224 198.097 126.184 198.084 126.146C198.071 126.108 198.05 126.073 198.024 126.043C197.997 126.013 197.965 125.989 197.929 125.971C197.893 125.953 197.854 125.943 197.814 125.941C197.774 125.938 197.734 125.944 197.696 125.957C197.658 125.97 197.623 125.99 197.593 126.017L168.24 149.041L162.697 140.102L157.856 142.904Z" fill="#E0E0E0"/>
</g>
<path opacity="0.1" d="M152.278 40.5734L130.163 123.314H137.599L159.468 40.5734H152.278Z" fill="white"/>
<path opacity="0.1" d="M163.758 40.5734L141.642 123.314H156.398L178.267 40.5734H163.758Z" fill="white"/>
<path d="M243.372 115.226L248.06 48.8147C248.103 48.3044 248.039 47.7907 247.872 47.3067C247.704 46.8228 247.437 46.3795 247.087 46.0054C246.738 45.6313 246.313 45.3348 245.842 45.1352C245.37 44.9356 244.862 44.8372 244.35 44.8464L128.475 44.9461C127.397 44.9609 126.363 45.3758 125.573 46.1101C124.784 46.8445 124.296 47.8459 124.203 48.9202L119.544 115.337C119.501 115.848 119.566 116.361 119.734 116.845C119.903 117.329 120.17 117.773 120.52 118.146C120.871 118.52 121.295 118.817 121.767 119.016C122.239 119.216 122.747 119.314 123.259 119.305L239.088 119.206C240.169 119.195 241.208 118.781 242 118.045C242.792 117.309 243.281 116.303 243.372 115.226Z" fill="#263238"/>
<path d="M241.883 113.778L246.571 47.3668C246.616 46.8564 246.553 46.3423 246.385 45.8579C246.218 45.3736 245.951 44.9299 245.601 44.5556C245.251 44.1813 244.827 43.8849 244.355 43.6855C243.883 43.4862 243.374 43.3884 242.862 43.3986L126.986 43.4983C125.909 43.5119 124.875 43.9266 124.086 44.6613C123.297 45.396 122.811 46.3981 122.72 47.4724L118.032 113.889C117.989 114.399 118.053 114.913 118.22 115.397C118.388 115.881 118.655 116.324 119.005 116.698C119.354 117.072 119.779 117.369 120.25 117.569C120.722 117.768 121.23 117.867 121.742 117.857L237.611 117.758C238.691 117.744 239.726 117.329 240.516 116.593C241.306 115.857 241.793 114.854 241.883 113.778Z" fill="#FF8084"/>
<path opacity="0.6" d="M238.813 114.763C238.574 114.981 238.263 115.103 237.939 115.103L122.064 115.202C121.878 115.2 121.694 115.16 121.524 115.085C121.354 115.01 121.201 114.902 121.074 114.766C120.947 114.63 120.848 114.47 120.785 114.295C120.721 114.12 120.694 113.934 120.704 113.748L125.392 47.3376C125.41 47.0151 125.553 46.7124 125.791 46.4935C126.027 46.2721 126.34 46.1504 126.664 46.1535L242.54 46.0539C242.725 46.056 242.909 46.0957 243.079 46.1707C243.249 46.2457 243.403 46.3544 243.53 46.4902C243.657 46.6261 243.755 46.7862 243.818 46.9611C243.882 47.1359 243.909 47.3218 243.899 47.5075L239.211 113.918C239.19 114.24 239.048 114.542 238.813 114.763Z" fill="white"/>
<path d="M200.271 78.2512H159.597C159.239 78.2572 158.894 78.3929 158.628 78.6332C158.362 78.8735 158.192 79.2022 158.15 79.5583L157.523 85.5077C157.503 85.6731 157.518 85.8408 157.568 85.9997C157.618 86.1586 157.701 86.305 157.812 86.4292C157.923 86.5534 158.059 86.6526 158.211 86.7201C158.363 86.7876 158.528 86.8219 158.695 86.8207H199.369C199.729 86.8135 200.074 86.6767 200.341 86.4355C200.607 86.1943 200.779 85.8649 200.822 85.5077L201.443 79.5583C201.462 79.3934 201.446 79.2264 201.396 79.0682C201.346 78.91 201.262 78.7643 201.152 78.6407C201.041 78.5172 200.905 78.4186 200.753 78.3514C200.602 78.2842 200.437 78.2501 200.271 78.2512Z" fill="white"/>
<path d="M164.438 102.547H158.092C157.732 102.554 157.387 102.691 157.12 102.932C156.853 103.174 156.682 103.503 156.638 103.86L156.017 109.81C155.998 109.974 156.014 110.142 156.064 110.3C156.115 110.458 156.198 110.604 156.309 110.727C156.42 110.851 156.555 110.949 156.707 111.016C156.859 111.084 157.023 111.118 157.189 111.117H163.535C163.894 111.11 164.238 110.974 164.505 110.734C164.772 110.494 164.944 110.166 164.989 109.81L165.61 103.86C165.63 103.695 165.614 103.527 165.565 103.368C165.515 103.209 165.431 103.063 165.321 102.939C165.21 102.814 165.074 102.715 164.921 102.648C164.769 102.58 164.604 102.546 164.438 102.547Z" fill="white"/>
<path d="M175.396 102.547H169.05C168.69 102.554 168.345 102.691 168.078 102.932C167.811 103.174 167.64 103.503 167.596 103.86L166.975 109.81C166.956 109.974 166.972 110.142 167.022 110.3C167.073 110.458 167.156 110.604 167.267 110.727C167.378 110.851 167.513 110.949 167.665 111.016C167.817 111.084 167.981 111.118 168.147 111.117H174.493C174.852 111.11 175.196 110.974 175.463 110.734C175.73 110.494 175.902 110.166 175.947 109.81L176.568 103.86C176.588 103.695 176.572 103.527 176.523 103.368C176.473 103.209 176.389 103.063 176.279 102.939C176.168 102.814 176.032 102.715 175.879 102.648C175.727 102.58 175.562 102.546 175.396 102.547Z" fill="white"/>
<path d="M186.348 102.547H180.007C179.648 102.554 179.303 102.691 179.036 102.932C178.769 103.174 178.598 103.503 178.554 103.86L177.933 109.81C177.914 109.974 177.93 110.142 177.98 110.3C178.031 110.458 178.114 110.604 178.225 110.727C178.336 110.851 178.471 110.949 178.623 111.016C178.775 111.084 178.939 111.118 179.105 111.117H185.451C185.81 111.11 186.155 110.974 186.421 110.734C186.688 110.494 186.86 110.166 186.905 109.81L187.52 103.86C187.54 103.695 187.525 103.527 187.475 103.368C187.425 103.209 187.342 103.063 187.231 102.939C187.12 102.814 186.984 102.715 186.832 102.648C186.679 102.58 186.515 102.546 186.348 102.547Z" fill="white"/>
<path d="M197.312 102.547H190.966C190.606 102.554 190.261 102.691 189.994 102.932C189.727 103.174 189.556 103.503 189.513 103.86L188.892 109.81C188.872 109.974 188.889 110.142 188.939 110.3C188.989 110.458 189.073 110.604 189.183 110.727C189.294 110.851 189.43 110.949 189.582 111.016C189.733 111.084 189.898 111.118 190.064 111.117H196.41C196.769 111.11 197.113 110.974 197.38 110.734C197.647 110.494 197.818 110.166 197.863 109.81L198.484 103.86C198.504 103.695 198.489 103.527 198.439 103.368C198.389 103.209 198.306 103.063 198.195 102.939C198.084 102.814 197.948 102.715 197.796 102.648C197.644 102.58 197.479 102.546 197.312 102.547Z" fill="white"/>
<path d="M164.701 98.4968H190.139C190.751 98.4859 191.338 98.2545 191.792 97.8453C192.246 97.436 192.538 96.8764 192.612 96.2695L192.923 93.3387C192.959 93.056 192.934 92.7687 192.849 92.4966C192.764 92.2245 192.621 91.974 192.43 91.7624C192.239 91.5508 192.005 91.383 191.743 91.2707C191.481 91.1583 191.198 91.1039 190.913 91.1113H165.475C164.863 91.1223 164.277 91.3537 163.822 91.7629C163.368 92.1721 163.077 92.7317 163.002 93.3387L162.691 96.2695C162.656 96.552 162.682 96.8389 162.767 97.1105C162.852 97.3822 162.995 97.6322 163.186 97.8436C163.377 98.055 163.611 98.2228 163.872 98.3355C164.134 98.4482 164.417 98.5033 164.701 98.4968Z" stroke="#FF8084" stroke-linecap="round" stroke-linejoin="round"/>
<path d="M201.736 65.8599H161.062C160.704 65.8685 160.36 66.0059 160.094 66.247C159.828 66.4881 159.658 66.8167 159.615 67.1729L158.988 73.1223C158.969 73.2872 158.985 73.4543 159.035 73.6125C159.085 73.7706 159.169 73.9163 159.279 74.0399C159.39 74.1635 159.526 74.2621 159.678 74.3292C159.83 74.3964 159.994 74.4306 160.16 74.4295H200.828C201.187 74.4224 201.531 74.2865 201.798 74.0465C202.065 73.8065 202.236 73.4785 202.281 73.1223L202.903 67.1729C202.923 67.0081 202.907 66.8409 202.858 66.6824C202.808 66.5239 202.726 66.3778 202.615 66.2536C202.505 66.1295 202.37 66.0302 202.218 65.9623C202.067 65.8945 201.902 65.8596 201.736 65.8599Z" fill="white"/>
<path d="M164.543 82.5359C164.568 82.3522 164.552 82.1653 164.498 81.9881C164.443 81.8109 164.351 81.6476 164.227 81.5095C164.104 81.3713 163.952 81.2616 163.782 81.1879C163.612 81.1141 163.428 81.0781 163.242 81.0823C162.844 81.0917 162.463 81.2436 162.167 81.5103C161.872 81.777 161.681 82.1409 161.631 82.5359C161.608 82.7196 161.625 82.906 161.681 83.0824C161.736 83.2589 161.829 83.4213 161.953 83.5587C162.077 83.696 162.229 83.805 162.399 83.8784C162.569 83.9517 162.753 83.9877 162.938 83.9837C163.334 83.9755 163.715 83.8247 164.01 83.5589C164.305 83.293 164.494 82.9299 164.543 82.5359Z" fill="#263238"/>
<path d="M169.02 82.5359C169.044 82.3518 169.027 82.1648 168.972 81.9876C168.917 81.8105 168.824 81.6473 168.7 81.5093C168.576 81.3713 168.424 81.2617 168.253 81.188C168.083 81.1143 167.899 81.0782 167.713 81.0823C167.316 81.0907 166.934 81.2423 166.639 81.5094C166.344 81.7764 166.156 82.1409 166.108 82.5359C166.084 82.7192 166.1 82.9055 166.155 83.082C166.21 83.2585 166.303 83.421 166.426 83.5585C166.55 83.6959 166.701 83.8051 166.871 83.8785C167.04 83.9519 167.224 83.9878 167.409 83.9837C167.806 83.9757 168.188 83.8251 168.483 83.5594C168.779 83.2936 168.97 82.9304 169.02 82.5359Z" fill="#263238"/>
<path d="M173.492 82.5359C173.515 82.3518 173.499 82.1648 173.444 81.9876C173.388 81.8105 173.296 81.6473 173.171 81.5093C173.047 81.3713 172.895 81.2617 172.725 81.188C172.554 81.1143 172.37 81.0782 172.185 81.0823C171.787 81.0907 171.406 81.2423 171.111 81.5094C170.816 81.7764 170.627 82.1409 170.579 82.5359C170.556 82.7196 170.573 82.9059 170.629 83.0824C170.685 83.2589 170.778 83.4213 170.902 83.5586C171.026 83.696 171.178 83.805 171.347 83.8784C171.517 83.9517 171.701 83.9877 171.886 83.9837C172.283 83.9755 172.663 83.8247 172.958 83.5589C173.253 83.293 173.442 82.9299 173.492 82.5359Z" fill="#263238"/>
<path d="M177.963 82.5359C177.987 82.3522 177.972 82.1653 177.917 81.9881C177.863 81.8109 177.771 81.6476 177.647 81.5095C177.523 81.3713 177.371 81.2616 177.201 81.1879C177.031 81.1141 176.847 81.0781 176.662 81.0823C176.264 81.0907 175.883 81.2423 175.588 81.5094C175.293 81.7764 175.104 82.1409 175.056 82.5359C175.032 82.7215 175.049 82.9102 175.105 83.0885C175.162 83.2669 175.257 83.4307 175.384 83.5682C175.511 83.7058 175.666 83.8137 175.84 83.8845C176.013 83.9553 176.2 83.9872 176.386 83.9779C176.777 83.963 177.15 83.81 177.439 83.5459C177.727 83.2819 177.913 82.924 177.963 82.5359Z" fill="#263238"/>
<path d="M182.527 82.5359C182.551 82.3518 182.535 82.1648 182.48 81.9876C182.424 81.8105 182.332 81.6473 182.207 81.5093C182.083 81.3713 181.931 81.2617 181.761 81.188C181.59 81.1143 181.406 81.0782 181.221 81.0823C180.823 81.0907 180.442 81.2423 180.147 81.5094C179.852 81.7764 179.663 82.1409 179.615 82.5359C179.591 82.7192 179.608 82.9055 179.663 83.082C179.717 83.2585 179.81 83.421 179.933 83.5585C180.057 83.6959 180.209 83.8051 180.378 83.8785C180.548 83.9519 180.731 83.9878 180.916 83.9837C181.313 83.9757 181.695 83.8251 181.991 83.5594C182.286 83.2936 182.477 82.9304 182.527 82.5359Z" fill="#263238"/>
<path d="M166.008 70.1447C166.033 69.9612 166.018 69.7745 165.963 69.5976C165.908 69.4207 165.816 69.2578 165.692 69.1201C165.569 68.9824 165.416 68.8732 165.246 68.8001C165.076 68.7271 164.892 68.6918 164.707 68.6969C164.311 68.7051 163.93 68.8559 163.635 69.1218C163.34 69.3876 163.151 69.7507 163.102 70.1447C163.077 70.3282 163.093 70.5148 163.147 70.6918C163.202 70.8687 163.294 71.0316 163.418 71.1693C163.541 71.307 163.694 71.4162 163.864 71.4892C164.034 71.5623 164.218 71.5975 164.403 71.5925C164.8 71.5855 165.181 71.4351 165.476 71.169C165.771 70.903 165.96 70.5391 166.008 70.1447Z" fill="#263238"/>
<path d="M170.485 70.1447C170.508 69.961 170.491 69.7747 170.435 69.5982C170.379 69.4217 170.286 69.2593 170.162 69.122C170.039 68.9846 169.886 68.8756 169.717 68.8022C169.547 68.7289 169.363 68.693 169.178 68.6969C168.785 68.7106 168.41 68.8639 168.12 69.1292C167.83 69.3946 167.645 69.7546 167.596 70.1447C167.572 70.328 167.589 70.5143 167.643 70.6907C167.698 70.8672 167.791 71.0297 167.914 71.1672C168.038 71.3047 168.19 71.4138 168.359 71.4872C168.529 71.5606 168.712 71.5965 168.897 71.5925C169.291 71.5801 169.667 71.4275 169.958 71.162C170.25 70.8965 170.436 70.5357 170.485 70.1447Z" fill="#263238"/>
<path d="M174.956 70.1447C174.98 69.9614 174.964 69.7751 174.909 69.5987C174.854 69.4222 174.761 69.2596 174.638 69.1222C174.514 68.9847 174.363 68.8755 174.193 68.8021C174.023 68.7287 173.84 68.6928 173.655 68.6969C173.258 68.7049 172.876 68.8555 172.581 69.1213C172.285 69.387 172.094 69.7502 172.044 70.1447C172.02 70.3285 172.036 70.5153 172.092 70.6922C172.147 70.8691 172.24 71.0319 172.364 71.1695C172.488 71.3071 172.641 71.4161 172.811 71.4891C172.981 71.5621 173.165 71.5974 173.351 71.5925C173.748 71.5855 174.129 71.4351 174.424 71.169C174.719 70.903 174.908 70.5392 174.956 70.1447Z" fill="#263238"/>
<path d="M179.428 70.1447C179.452 69.9612 179.437 69.7745 179.382 69.5976C179.328 69.4207 179.236 69.2578 179.112 69.1201C178.988 68.9824 178.836 68.8732 178.666 68.8001C178.496 68.7271 178.312 68.6918 178.127 68.6969C177.73 68.7051 177.349 68.8559 177.055 69.1218C176.76 69.3876 176.57 69.7507 176.521 70.1447C176.496 70.3282 176.512 70.5148 176.567 70.6918C176.621 70.8687 176.713 71.0316 176.837 71.1693C176.961 71.307 177.113 71.4162 177.283 71.4892C177.453 71.5623 177.637 71.5975 177.822 71.5925C178.219 71.5855 178.601 71.4351 178.896 71.169C179.191 70.903 179.38 70.5391 179.428 70.1447Z" fill="#263238"/>
<path d="M183.904 70.1447C183.927 69.961 183.91 69.7747 183.855 69.5982C183.799 69.4217 183.706 69.2593 183.582 69.122C183.458 68.9846 183.306 68.8756 183.136 68.8022C182.966 68.7289 182.783 68.693 182.598 68.6969C182.201 68.7051 181.82 68.8559 181.525 69.1217C181.231 69.3876 181.041 69.7507 180.992 70.1447C180.968 70.3285 180.985 70.5153 181.04 70.6922C181.095 70.8691 181.188 71.0319 181.312 71.1695C181.436 71.307 181.589 71.4161 181.759 71.4891C181.93 71.5621 182.114 71.5974 182.299 71.5925C182.696 71.5855 183.077 71.4351 183.372 71.169C183.667 70.903 183.856 70.5391 183.904 70.1447Z" fill="#263238"/>
<path d="M188.376 70.1447C188.399 69.9614 188.383 69.7751 188.328 69.5987C188.273 69.4222 188.181 69.2596 188.057 69.1222C187.934 68.9847 187.782 68.8755 187.612 68.8021C187.443 68.7287 187.259 68.6928 187.075 68.6969C186.677 68.7049 186.296 68.8555 186 69.1213C185.704 69.387 185.514 69.7502 185.463 70.1447C185.439 70.3285 185.456 70.5153 185.511 70.6922C185.566 70.8691 185.659 71.0319 185.783 71.1695C185.908 71.3071 186.06 71.4161 186.23 71.4891C186.401 71.5621 186.585 71.5974 186.77 71.5925C187.167 71.5855 187.549 71.4351 187.844 71.169C188.139 70.903 188.328 70.5392 188.376 70.1447Z" fill="#263238"/>
<path d="M184.59 52.7419L184.274 55.7488C184.251 55.8797 184.185 55.999 184.086 56.0874C183.987 56.1758 183.861 56.2279 183.729 56.2353C183.666 56.2377 183.604 56.2262 183.546 56.2019C183.489 56.1776 183.437 56.141 183.395 56.0946C183.354 56.0482 183.322 55.9933 183.304 55.9335C183.286 55.8738 183.281 55.8107 183.289 55.7488L183.606 52.7419C183.633 52.5192 183.613 52.2932 183.546 52.0792C183.478 51.8651 183.366 51.668 183.216 51.5012C183.066 51.3345 182.882 51.2019 182.676 51.1126C182.47 51.0232 182.248 50.9792 182.023 50.9834H180.939C180.458 50.9949 179.996 51.1786 179.638 51.5011C179.28 51.8237 179.049 52.2639 178.988 52.7419L178.713 55.532H177.728L178.003 52.7419C178.096 51.996 178.455 51.3086 179.014 50.8058C179.572 50.303 180.293 50.0185 181.045 50.0046H182.123C182.473 49.9957 182.821 50.0628 183.142 50.201C183.464 50.3393 183.752 50.5456 183.986 50.8056C184.22 51.0657 184.396 51.3734 184.5 51.7076C184.604 52.0418 184.635 52.3947 184.59 52.7419Z" fill="#FF8084"/>
<path d="M184.59 55.6374L183.975 61.4989C183.951 61.6809 183.863 61.8483 183.726 61.9709C183.59 62.0935 183.414 62.1631 183.231 62.1672H177.371C177.286 62.168 177.203 62.1506 177.126 62.1161C177.049 62.0817 176.98 62.031 176.924 61.9676C176.869 61.9041 176.827 61.8294 176.803 61.7485C176.779 61.6676 176.773 61.5825 176.785 61.4989L177.4 55.6374C177.411 55.517 177.451 55.401 177.517 55.299C177.582 55.1971 177.67 55.1122 177.775 55.0513C177.887 54.9857 178.014 54.9513 178.144 54.9516H184.004C184.124 54.9504 184.242 54.9829 184.344 55.0454C184.438 55.1095 184.511 55.1997 184.555 55.3048C184.599 55.4099 184.611 55.5255 184.59 55.6374Z" fill="#FF8084"/>
<path d="M230.48 43.0117L216.158 43.0938" stroke="#263238" stroke-linecap="round" stroke-linejoin="round"/>
<path d="M238.285 42.9707L233.222 42.9941" stroke="#263238" stroke-linecap="round" stroke-linejoin="round"/>
<g opacity="0.3">
<path d="M137.769 46.1359H154.177L137.493 115.202H124.267C123.886 115.195 123.511 115.101 123.17 114.928C122.83 114.755 122.533 114.507 122.302 114.203C122.071 113.9 121.912 113.547 121.836 113.173C121.76 112.799 121.77 112.413 121.865 112.043L137.769 46.1359Z" fill="white"/>
<path d="M161.443 46.1359H168.399L151.733 115.202H144.777L161.443 46.1359Z" fill="white"/>
</g>
<path d="M50.7773 24.5773H54.1057C53.326 24.5662 52.5525 24.7188 51.8354 25.0251C51.1182 25.3315 50.4732 25.7848 49.942 26.3559C49.4108 26.927 49.0052 27.6032 48.7514 28.3408C48.4976 29.0784 48.4012 29.861 48.4684 30.6381L55.5297 131.632C55.6636 133.267 56.4016 134.794 57.5999 135.915C58.7981 137.035 60.3707 137.669 62.0109 137.693H58.6883C57.0475 137.669 55.4742 137.036 54.275 135.915C53.0757 134.795 52.3365 133.268 52.2012 131.632L45.1224 30.6381C45.0549 29.8595 45.1518 29.0754 45.4067 28.3365C45.6615 27.5977 46.0687 26.9207 46.6018 26.3493C47.1349 25.778 47.7821 25.325 48.5014 25.0197C49.2207 24.7144 49.996 24.5637 50.7773 24.5773Z" fill="#FF8084"/>
<path d="M50.7772 24.5773H54.1057C53.3259 24.5662 52.5525 24.7188 51.8353 25.0252C51.1181 25.3315 50.4731 25.7849 49.9419 26.356C49.4107 26.9271 49.0051 27.6032 48.7513 28.3408C48.4975 29.0784 48.4011 29.861 48.4684 30.6381L55.5297 131.632C55.6635 133.267 56.4016 134.794 57.5998 135.915C58.7981 137.035 60.3707 137.669 62.0108 137.693H58.6882C55.3422 137.693 51.9668 134.979 51.7324 131.632L44.6711 30.6381C44.4367 27.2912 47.4312 24.5773 50.7772 24.5773Z" fill="#263238"/>
<path d="M59.6785 137.699H100.405C101.187 137.713 101.963 137.563 102.683 137.258C103.403 136.953 104.051 136.5 104.585 135.929C105.119 135.357 105.526 134.68 105.782 133.941C106.037 133.202 106.134 132.417 106.066 131.638L98.9815 30.6381C98.8489 29.0007 98.1107 27.4717 96.9111 26.3498C95.7114 25.2279 94.1366 24.5938 92.4945 24.5714H51.7734C50.9931 24.5603 50.2191 24.713 49.5015 25.0197C48.7838 25.3264 48.1385 25.7803 47.6072 26.352C47.076 26.9238 46.6705 27.6007 46.4171 28.339C46.1637 29.0772 46.0679 29.8605 46.136 30.6381L53.168 131.632C53.3023 133.273 54.0443 134.804 55.2486 135.927C56.4529 137.049 58.0327 137.681 59.6785 137.699Z" fill="#FF8084"/>
<g opacity="0.6">
<path d="M92.3887 26.5351C93.5297 26.5531 94.6231 26.9952 95.4561 27.7753C96.2891 28.5555 96.802 29.6177 96.895 30.7554L103.956 131.749C104.004 132.265 103.943 132.784 103.776 133.274C103.609 133.764 103.341 134.214 102.989 134.593C102.636 134.972 102.208 135.272 101.731 135.474C101.255 135.676 100.741 135.775 100.224 135.764H59.5024C58.3608 135.746 57.2666 135.305 56.4327 134.525C55.5987 133.745 55.0846 132.682 54.9902 131.544L47.9582 30.5502C47.9105 30.0373 47.9711 29.5201 48.1362 29.0322C48.3012 28.5442 48.567 28.0964 48.9162 27.7178C49.2654 27.3392 49.6903 27.0383 50.1632 26.8345C50.6362 26.6308 51.1467 26.5287 51.6617 26.5351H92.3887Z" fill="white"/>
</g>
<g opacity="0.3">
<path d="M80.8679 135.753H64.6416L78.0376 26.5351H91.1112C91.6758 26.533 92.2347 26.6474 92.753 26.8714C93.2713 27.0953 93.7378 27.4238 94.1233 27.8363L80.8679 135.753Z" fill="white"/>
<path d="M61.7294 135.753H58.0728L71.4687 26.5233H75.1254L61.7294 135.753Z" fill="white"/>
</g>
<path d="M60.4634 74.2478H89.9626" stroke="white" stroke-linecap="round" stroke-linejoin="round"/>
<path d="M64.2666 78.6146H87.3726" stroke="white" stroke-linecap="round" stroke-linejoin="round"/>
<path d="M61.3425 54.1311L61.3835 55.3034H60.6276L60.5866 54.1311L59.2446 52.0268H60.0475L60.9733 53.4804L61.7937 52.0268H62.538L61.3425 54.1311Z" fill="#FF8084"/>
<path d="M62.5674 53.6504C62.5575 53.42 62.5967 53.1901 62.6825 52.976C62.7683 52.762 62.8987 52.5686 63.065 52.4089C63.2313 52.2492 63.4298 52.1268 63.6471 52.0497C63.8644 51.9727 64.0957 51.9429 64.3254 51.9623C64.5578 51.9505 64.7902 51.9849 65.0091 52.0636C65.228 52.1423 65.4292 52.2636 65.6009 52.4207C65.7726 52.5777 65.9114 52.7672 66.0094 52.9783C66.1073 53.1894 66.1623 53.4179 66.1713 53.6504C66.1822 53.8813 66.1436 54.1118 66.0582 54.3266C65.9728 54.5414 65.8425 54.7354 65.6761 54.8958C65.5096 55.0562 65.3109 55.1791 65.0931 55.2565C64.8754 55.3339 64.6436 55.3638 64.4133 55.3444C64.1805 55.3562 63.9477 55.3215 63.7284 55.2425C63.509 55.1634 63.3076 55.0416 63.1359 54.8839C62.9641 54.7263 62.8254 54.536 62.7278 54.3243C62.6302 54.1125 62.5757 53.8834 62.5674 53.6504ZM65.3802 53.6504C65.3811 53.5117 65.354 53.3742 65.3008 53.2461C65.2476 53.1179 65.1692 53.0018 65.0703 52.9045C64.9714 52.8073 64.854 52.7308 64.7251 52.6797C64.5961 52.6286 64.4582 52.6039 64.3196 52.607C64.1837 52.6013 64.0482 52.6249 63.9222 52.6761C63.7962 52.7273 63.6827 52.8051 63.5893 52.904C63.496 53.0029 63.4249 53.1208 63.3811 53.2496C63.3372 53.3783 63.3215 53.515 63.3351 53.6504C63.3335 53.7896 63.3599 53.9277 63.4128 54.0565C63.4657 54.1853 63.5439 54.3022 63.6429 54.4001C63.7419 54.498 63.8595 54.5749 63.9889 54.6264C64.1182 54.6779 64.2566 54.7028 64.3958 54.6996C64.5317 54.7035 64.6669 54.6785 64.7924 54.6263C64.9179 54.574 65.031 54.4957 65.124 54.3966C65.2171 54.2974 65.288 54.1796 65.3322 54.051C65.3764 53.9224 65.3927 53.7858 65.3802 53.6504Z" fill="#FF8084"/>
<path d="M66.6929 53.8497L66.6343 52.0151H67.3902L67.4488 53.8204C67.4488 54.4417 67.7535 54.6996 68.2106 54.6996C68.6677 54.6996 68.9314 54.4417 68.908 53.8204L68.8435 52.0151H69.5877L69.6522 53.8497C69.683 54.0469 69.668 54.2486 69.6084 54.4391C69.5489 54.6295 69.4463 54.8038 69.3086 54.9483C69.171 55.0928 69.0019 55.2036 68.8146 55.2723C68.6272 55.341 68.4266 55.3657 68.2282 55.3444C68.0256 55.3625 67.8214 55.3367 67.6297 55.2685C67.4379 55.2004 67.2632 55.0917 67.1174 54.9497C66.9716 54.8078 66.8582 54.636 66.7849 54.4461C66.7116 54.2563 66.6802 54.0528 66.6929 53.8497Z" fill="#FF8084"/>
<path d="M72.5354 55.2917L71.8732 54.3773H71.1759L71.211 55.2917H70.4551L70.3379 52.0151H71.756C72.6291 52.0151 73.1917 52.4723 73.2152 53.1874C73.2341 53.4052 73.1822 53.6234 73.0671 53.8093C72.952 53.9952 72.7799 54.1389 72.5764 54.219L73.3499 55.2741L72.5354 55.2917ZM71.7326 52.6364H71.1466L71.1876 53.7735H71.7736C72.2365 53.7735 72.4592 53.5625 72.4475 53.1874C72.4358 52.8122 72.1955 52.6364 71.7326 52.6364Z" fill="#FF8084"/>
<path d="M74.9496 53.6504C74.9374 53.4235 74.9736 53.1966 75.0556 52.9848C75.1376 52.7729 75.2637 52.5808 75.4254 52.4213C75.5871 52.2617 75.7809 52.1383 75.9938 52.0592C76.2067 51.9801 76.434 51.9471 76.6607 51.9623C76.9172 51.9544 77.1724 52.0027 77.4083 52.104C77.6442 52.2053 77.855 52.357 78.026 52.5485L77.5573 52.9939C77.4536 52.8734 77.3249 52.7769 77.1802 52.7112C77.0355 52.6454 76.8782 52.6118 76.7193 52.6129C76.582 52.6057 76.4447 52.628 76.3168 52.6784C76.1888 52.7288 76.0732 52.806 75.9777 52.9049C75.8821 53.0038 75.8089 53.122 75.763 53.2517C75.717 53.3813 75.6994 53.5193 75.7113 53.6563C75.7104 53.7973 75.7381 53.9371 75.7928 54.0671C75.8474 54.1971 75.9278 54.3147 76.0291 54.4128C76.1304 54.5108 76.2506 54.5873 76.3823 54.6376C76.514 54.688 76.6546 54.711 76.7955 54.7055C76.9511 54.7087 77.1053 54.6754 77.2458 54.6082C77.3862 54.541 77.5089 54.4418 77.6041 54.3186L78.1022 54.7641C77.9428 54.9587 77.7399 55.1132 77.5099 55.215C77.2798 55.3168 77.0291 55.3632 76.7779 55.3503C76.546 55.3597 76.3146 55.3231 76.0969 55.2426C75.8793 55.1621 75.6797 55.0393 75.5098 54.8812C75.3398 54.7232 75.2028 54.5331 75.1066 54.3219C75.0105 54.1106 74.9571 53.8824 74.9496 53.6504Z" fill="#FF8084"/>
<path d="M78.3012 53.6504C78.2917 53.4227 78.3302 53.1955 78.4143 52.9836C78.4983 52.7717 78.626 52.5799 78.7891 52.4207C78.9522 52.2614 79.1469 52.1383 79.3607 52.0593C79.5745 51.9804 79.8025 51.9473 80.0299 51.9623C80.2623 51.9505 80.4947 51.9849 80.7136 52.0636C80.9325 52.1423 81.1337 52.2637 81.3054 52.4207C81.4771 52.5777 81.6159 52.7673 81.7138 52.9784C81.8118 53.1895 81.8668 53.4179 81.8758 53.6504C81.8862 53.8787 81.8483 54.1065 81.7647 54.3191C81.681 54.5317 81.5534 54.7243 81.3902 54.8841C81.2271 55.044 81.032 55.1677 80.8178 55.247C80.6036 55.3263 80.3751 55.3595 80.1471 55.3444C79.9143 55.3562 79.6815 55.3216 79.4622 55.2425C79.2428 55.1635 79.0414 55.0416 78.8696 54.884C78.6979 54.7263 78.5592 54.5361 78.4616 54.3243C78.364 54.1125 78.3095 53.8835 78.3012 53.6504ZM81.1082 53.6504C81.1098 53.512 81.0835 53.3746 81.0309 53.2465C80.9783 53.1185 80.9005 53.0023 80.8021 52.9049C80.7036 52.8076 80.5866 52.731 80.458 52.6798C80.3294 52.6287 80.1918 52.6039 80.0534 52.6071C79.9175 52.6014 79.782 52.6249 79.656 52.6762C79.53 52.7274 79.4165 52.8051 79.3231 52.9041C79.2298 53.003 79.1587 53.1208 79.1149 53.2496C79.071 53.3784 79.0553 53.5151 79.0689 53.6504C79.0665 53.7894 79.0922 53.9274 79.1444 54.0562C79.1966 54.1849 79.2743 54.3018 79.3729 54.3998C79.4714 54.4978 79.5887 54.5749 79.7177 54.6264C79.8467 54.6779 79.9848 54.7028 80.1237 54.6997C80.2599 54.7045 80.3955 54.6801 80.5215 54.6282C80.6475 54.5763 80.7609 54.498 80.8541 54.3987C80.9474 54.2993 81.0183 54.1811 81.0621 54.0521C81.1059 53.923 81.1216 53.7861 81.1082 53.6504Z" fill="#FF8084"/>
<path d="M82.3916 52.0151H83.8742C84.1051 51.9925 84.3382 52.0176 84.5591 52.0889C84.7799 52.1601 84.9837 52.276 85.1579 52.4294C85.3321 52.5827 85.4729 52.7702 85.5716 52.9803C85.6704 53.1903 85.7249 53.4184 85.7318 53.6504C85.7448 53.8796 85.7072 54.1088 85.6217 54.3218C85.5363 54.5348 85.405 54.7264 85.2373 54.8831C85.0695 55.0397 84.8693 55.1575 84.651 55.2281C84.4327 55.2987 84.2015 55.3204 83.9738 55.2916H82.4854L82.3916 52.0151ZM83.9328 54.6703C84.071 54.6847 84.2107 54.6683 84.3418 54.6223C84.473 54.5764 84.5923 54.5021 84.6914 54.4046C84.7905 54.3072 84.8669 54.1891 84.915 54.0587C84.9632 53.9283 84.982 53.7889 84.97 53.6504C84.9697 53.5092 84.9401 53.3697 84.8831 53.2405C84.8261 53.1114 84.7429 52.9955 84.6388 52.9002C84.5347 52.8048 84.412 52.7322 84.2783 52.6868C84.1447 52.6414 84.0031 52.6242 83.8625 52.6364H83.171L83.2413 54.6703H83.9328Z" fill="#FF8084"/>
<path d="M88.8728 54.6703V55.2564H86.3413L86.2241 51.9799H88.697V52.566H87.0211V53.2752H88.5388V53.8614H87.0211V54.6175L88.8728 54.6703Z" fill="#FF8084"/>
<path d="M67.0266 67.4543V68.7672H60.8794V67.7298L64.1493 64.5704C64.9463 63.7908 65.0811 63.3043 65.0752 62.812C65.0752 62.05 64.5244 61.6045 63.4989 61.6045C63.1286 61.5858 62.7593 61.6552 62.4211 61.8071C62.0829 61.9589 61.7855 62.1888 61.5533 62.4778L60.4517 61.6396C60.8304 61.1762 61.3137 60.8092 61.8617 60.5688C62.4097 60.3283 63.0069 60.2212 63.6043 60.2563C65.4209 60.2563 66.6105 61.1766 66.634 62.6596C66.634 63.4684 66.4347 64.2129 65.2979 65.3031L63.1004 67.4308L67.0266 67.4543Z" fill="#263238"/>
<path d="M73.8361 66.2585C73.8361 67.6653 72.8165 68.8845 70.5721 68.8845C69.4416 68.9047 68.3338 68.5661 67.4077 67.9174L68.0582 66.7099C68.7643 67.2549 69.6334 67.5461 70.5252 67.5364C71.6328 67.5364 72.2832 67.044 72.2832 66.2703C72.2832 65.4965 71.6972 65.0218 70.4432 65.0218H69.6814V63.9608L71.4921 61.7041H67.689V60.4029H73.3966V61.4462L71.4042 63.8612C73.004 64.0487 73.8361 64.9983 73.8361 66.2585Z" fill="#263238"/>
<path d="M81.6534 66.3933C81.6534 67.9466 80.3466 68.9138 78.2663 68.9138C76.186 68.9138 74.8382 67.9466 74.8147 66.3933C74.7971 65.9663 74.913 65.5444 75.1461 65.1862C75.3792 64.828 75.7181 64.5513 76.1157 64.3946C75.7912 64.2301 75.519 63.9784 75.3296 63.6678C75.1402 63.3572 75.041 62.9999 75.0433 62.6361C75.0433 61.2 76.2622 60.2915 78.1139 60.2915C79.9657 60.2915 81.2607 61.1883 81.2842 62.6361C81.3023 62.9979 81.2144 63.357 81.0311 63.6695C80.8479 63.9819 80.5774 64.2339 80.2528 64.3946C80.6603 64.548 81.012 64.8208 81.2619 65.1775C81.5118 65.5341 81.6482 65.9579 81.6534 66.3933ZM80.0829 66.3464C80.0829 65.52 79.3445 65.0042 78.196 65.0042C77.0474 65.0042 76.3618 65.52 76.3794 66.3464C76.3969 67.1729 77.0943 67.6946 78.2428 67.6946C79.3914 67.6946 80.1005 67.1671 80.0829 66.3171V66.3464ZM76.5669 62.7123C76.5669 63.4274 77.1529 63.8846 78.1667 63.8846C79.1804 63.8846 79.7606 63.4274 79.743 62.7123C79.7254 61.9972 79.0808 61.54 78.1198 61.54C77.1587 61.54 76.5669 61.9269 76.5786 62.683L76.5669 62.7123Z" fill="#263238"/>
<path d="M89.4471 66.3933C89.4471 67.9466 88.1404 68.9138 86.0601 68.9138C83.9798 68.9138 82.6261 67.9173 82.6261 66.3933C82.6094 65.9665 82.7255 65.5449 82.9586 65.1869C83.1916 64.8289 83.53 64.552 83.927 64.3946C83.6023 64.2309 83.3302 63.9792 83.1416 63.6683C82.9531 63.3574 82.8556 62.9997 82.8605 62.6361C82.8312 61.2 84.0735 60.2915 85.9253 60.2915C87.777 60.2915 89.0721 61.1883 89.0955 62.6361C89.1137 62.9979 89.0257 63.357 88.8425 63.6695C88.6593 63.9819 88.3887 64.2339 88.0642 64.3946C88.4684 64.5508 88.8163 64.8248 89.0629 65.1812C89.3095 65.5376 89.4434 65.9599 89.4471 66.3933ZM87.8767 66.3464C87.8767 65.52 87.1383 65.0042 85.9897 65.0042C84.8412 65.0042 84.1556 65.52 84.1731 66.3464C84.1907 67.1729 84.8881 67.6946 86.0366 67.6946C87.1852 67.6946 87.9001 67.1671 87.9001 66.3171L87.8767 66.3464ZM84.3607 62.7123C84.3607 63.4274 84.976 63.8846 85.9604 63.8846C86.9449 63.8846 87.5544 63.4274 87.5426 62.7123C87.5309 61.9972 86.8746 61.54 85.9194 61.54C84.9642 61.54 84.3841 61.9269 84.3841 62.683L84.3607 62.7123Z" fill="#263238"/>
<path d="M44.958 39.2194L45.9952 53.3866" stroke="#FF8084" stroke-linecap="round" stroke-linejoin="round"/>
<path d="M44.4834 32.76L44.7588 36.4997" stroke="#FF8084" stroke-linecap="round" stroke-linejoin="round"/>
<path d="M72.2949 18.6748V10.0525" stroke="#FF8084" stroke-linecap="round" stroke-linejoin="round"/>
<path d="M65.4682 20.5036L61.1611 13.036" stroke="#FF8084" stroke-linecap="round" stroke-linejoin="round"/>
<path d="M83.4292 13.036L79.1221 20.5036" stroke="#FF8084" stroke-linecap="round" stroke-linejoin="round"/>
<path d="M183.94 171.76C180.979 183.652 179.78 195.914 180.383 208.154" stroke="#FF8084" stroke-miterlimit="10"/>
<path d="M181.203 171.256C181.203 172.346 182.211 176.22 183.307 176.191C184.403 176.162 185.194 172.252 185.165 171.156C185.158 170.896 185.1 170.64 184.995 170.402C184.889 170.164 184.738 169.949 184.549 169.77C184.361 169.59 184.139 169.45 183.896 169.356C183.653 169.263 183.394 169.218 183.134 169.225C182.874 169.231 182.618 169.289 182.38 169.395C182.142 169.5 181.927 169.652 181.748 169.84C181.569 170.029 181.428 170.251 181.335 170.494C181.241 170.737 181.197 170.996 181.203 171.256Z" fill="#FF8084"/>
<path d="M185.463 183.559C185.463 182.463 184.455 178.594 183.365 178.618C182.275 178.641 181.479 182.557 181.502 183.653C181.508 183.913 181.565 184.169 181.671 184.407C181.776 184.645 181.927 184.86 182.115 185.04C182.304 185.22 182.525 185.36 182.768 185.454C183.011 185.548 183.269 185.593 183.53 185.587C183.79 185.581 184.046 185.524 184.284 185.418C184.522 185.313 184.737 185.162 184.916 184.974C185.096 184.785 185.237 184.563 185.33 184.321C185.424 184.078 185.469 183.819 185.463 183.559Z" fill="#FF8084"/>
<path d="M177.183 179.521C178.279 179.521 182.146 178.512 182.117 177.416C182.088 176.32 178.185 175.529 177.089 175.558C176.829 175.564 176.573 175.622 176.335 175.727C176.097 175.832 175.882 175.983 175.702 176.172C175.523 176.36 175.382 176.582 175.288 176.825C175.194 177.067 175.149 177.326 175.155 177.586C175.161 177.846 175.219 178.103 175.324 178.341C175.429 178.579 175.58 178.794 175.769 178.973C175.957 179.153 176.179 179.294 176.421 179.388C176.664 179.482 176.923 179.527 177.183 179.521Z" fill="#FF8084"/>
<path d="M189.483 175.277C188.393 175.277 184.52 176.285 184.549 177.375C184.578 178.465 188.487 179.263 189.583 179.239C189.843 179.233 190.099 179.175 190.337 179.069C190.575 178.964 190.789 178.812 190.969 178.624C191.148 178.435 191.288 178.213 191.382 177.97C191.475 177.727 191.52 177.468 191.514 177.208C191.507 176.948 191.449 176.692 191.344 176.454C191.238 176.216 191.087 176.001 190.898 175.822C190.71 175.642 190.488 175.502 190.245 175.408C190.002 175.315 189.743 175.27 189.483 175.277Z" fill="#FF8084"/>
<path d="M177.476 174.562C178.273 175.318 181.701 177.363 182.457 176.566C183.213 175.769 181.004 172.463 180.213 171.695C179.833 171.332 179.324 171.135 178.799 171.147C178.274 171.159 177.775 171.38 177.412 171.76C177.049 172.14 176.852 172.649 176.864 173.174C176.876 173.7 177.096 174.199 177.476 174.562Z" fill="#FF8084"/>
<path d="M189.19 180.247C188.399 179.491 184.971 177.451 184.215 178.243C183.459 179.034 185.663 182.346 186.454 183.12C186.642 183.299 186.864 183.44 187.107 183.534C187.35 183.628 187.609 183.673 187.87 183.667C188.13 183.66 188.387 183.603 188.625 183.497C188.863 183.392 189.078 183.241 189.258 183.052C189.437 182.864 189.578 182.641 189.672 182.398C189.766 182.155 189.811 181.896 189.805 181.636C189.798 181.375 189.741 181.119 189.636 180.88C189.53 180.642 189.379 180.427 189.19 180.247Z" fill="#FF8084"/>
<path d="M180.488 183.266C181.244 182.469 183.284 179.04 182.492 178.284C181.701 177.528 178.39 179.737 177.617 180.529C177.254 180.909 177.057 181.419 177.07 181.945C177.083 182.471 177.304 182.97 177.684 183.333C178.065 183.696 178.574 183.893 179.1 183.881C179.626 183.868 180.125 183.647 180.488 183.266Z" fill="#FF8084"/>
<path d="M186.178 171.549C185.422 172.34 183.377 175.769 184.174 176.525C184.971 177.281 188.276 175.077 189.044 174.286C189.223 174.098 189.364 173.876 189.458 173.634C189.552 173.391 189.597 173.132 189.591 172.872C189.585 172.612 189.528 172.355 189.423 172.117C189.318 171.879 189.167 171.664 188.979 171.484C188.791 171.305 188.569 171.164 188.327 171.07C188.084 170.976 187.825 170.93 187.565 170.936C187.305 170.942 187.049 170.999 186.811 171.105C186.573 171.21 186.358 171.361 186.178 171.549Z" fill="#FF8084"/>
<path d="M180.986 177.463C180.998 177.926 181.146 178.376 181.413 178.755C181.68 179.133 182.053 179.425 182.486 179.591C182.918 179.758 183.39 179.793 183.842 179.692C184.294 179.59 184.706 179.357 185.026 179.022C185.345 178.687 185.559 178.264 185.638 177.808C185.718 177.351 185.661 176.881 185.474 176.457C185.287 176.033 184.978 175.674 184.587 175.426C184.196 175.177 183.741 175.05 183.277 175.06C182.969 175.067 182.665 175.134 182.383 175.259C182.101 175.384 181.846 175.563 181.633 175.786C181.42 176.009 181.253 176.272 181.142 176.56C181.031 176.848 180.978 177.155 180.986 177.463Z" fill="white"/>
<path d="M180.652 194.907C180.652 194.907 181.057 188.922 184.344 187.979C187.632 187.035 188.833 185.745 188.833 185.745C188.833 185.745 188.499 195.024 180.652 194.907Z" fill="#FF8084"/>
<path opacity="0.5" d="M180.652 194.907C180.652 194.907 181.057 188.922 184.344 187.979C187.632 187.035 188.833 185.745 188.833 185.745C188.833 185.745 188.499 195.024 180.652 194.907Z" fill="white"/>
<path d="M180.219 199.491C180.219 199.491 179.814 193.506 176.527 192.556C173.239 191.607 172.038 190.329 172.038 190.329C172.038 190.329 172.372 199.608 180.219 199.491Z" fill="#FF8084"/>
<path opacity="0.5" d="M180.219 199.491C180.219 199.491 179.814 193.506 176.527 192.556C173.239 191.607 172.038 190.329 172.038 190.329C172.038 190.329 172.372 199.608 180.219 199.491Z" fill="white"/>
<path d="M192.618 211.958C192.618 216.647 187.057 220.41 180.201 220.41C173.345 220.41 167.784 216.63 167.784 211.958C167.784 209.614 169.208 207.456 171.511 205.927C172.962 204.98 174.575 204.308 176.269 203.945H184.133C185.871 204.319 187.523 205.017 189.003 206.003C191.241 207.533 192.618 209.631 192.618 211.958Z" fill="#FF8084"/>
<path opacity="0.8" d="M184.133 203.945C185.871 204.319 187.523 205.017 189.003 206.003C191.241 207.533 192.618 209.631 192.618 211.958C192.618 216.647 187.057 220.41 180.201 220.41C173.345 220.41 167.784 216.63 167.784 211.958C167.784 209.614 169.208 207.456 171.511 205.927C172.962 204.98 174.575 204.308 176.269 203.945H184.133Z" fill="white"/>
<path d="M180.236 204.725V208.904" stroke="#FF8084" stroke-miterlimit="10"/>
<path d="M189.548 203.817L188.892 205.868L188.88 205.892H171.517L171.482 205.78L170.854 203.817H189.548Z" fill="#FF8084"/>
<path d="M191.153 213.658C189.909 215.383 188.275 216.789 186.383 217.761C183.4 219.344 170.854 219.748 169.419 212.632C169.419 212.533 169.366 212.433 169.348 212.333C169.285 211.893 169.324 211.443 169.46 211.02C169.597 210.596 169.828 210.209 170.137 209.888C170.445 209.567 170.822 209.321 171.24 209.168C171.658 209.015 172.105 208.958 172.548 209.004C173.737 209.084 174.932 209.017 176.105 208.805C180.609 208.122 185.206 208.367 189.612 209.526C190.03 209.636 190.414 209.845 190.734 210.136C191.054 210.426 191.3 210.788 191.451 211.193C191.602 211.598 191.654 212.033 191.602 212.462C191.55 212.891 191.396 213.301 191.153 213.658Z" fill="#263238"/>
<path d="M101.091 211.29C101.201 211.247 101.298 211.177 101.374 211.087C101.449 210.997 101.501 210.889 101.525 210.774C101.547 210.704 101.55 210.63 101.534 210.559C101.517 210.488 101.482 210.422 101.431 210.37C100.98 209.901 99.1456 210.235 98.9405 210.276C98.9166 210.278 98.8941 210.287 98.8761 210.303C98.8582 210.319 98.8458 210.34 98.8408 210.364C98.8362 210.387 98.8381 210.41 98.8464 210.432C98.8547 210.454 98.8691 210.473 98.8877 210.487C99.2534 210.754 99.6463 210.982 100.06 211.167C100.378 211.327 100.743 211.371 101.091 211.29ZM101.255 210.534C101.277 210.558 101.291 210.588 101.298 210.62C101.304 210.652 101.301 210.685 101.29 210.715C101.277 210.792 101.244 210.864 101.195 210.925C101.145 210.986 101.082 211.032 101.009 211.061C100.675 211.184 100.036 210.956 99.251 210.475C100.013 210.346 101.015 210.282 101.255 210.534Z" fill="#FF8084"/>
<path d="M98.9757 210.51C99.5617 210.44 100.827 209.778 100.939 209.203C100.958 209.109 100.944 209.012 100.899 208.927C100.854 208.843 100.781 208.776 100.693 208.74C100.61 208.695 100.519 208.667 100.425 208.66C100.331 208.653 100.236 208.666 100.148 208.699C99.4445 208.939 98.8702 210.288 98.8468 210.346C98.8383 210.365 98.834 210.385 98.834 210.405C98.834 210.425 98.8383 210.445 98.8468 210.463C98.8604 210.481 98.8786 210.496 98.8995 210.504L98.9757 210.51ZM100.57 208.951C100.71 209.027 100.716 209.104 100.704 209.156C100.634 209.508 99.7727 210.053 99.1691 210.223C99.3859 209.783 99.8078 209.051 100.23 208.922C100.324 208.883 100.429 208.883 100.523 208.922L100.57 208.951Z" fill="#FF8084"/>
<path d="M93.4146 208.148L98.1846 210.077L102.351 199.051L97.5751 197.123L93.4146 208.148Z" fill="#FFB573"/>
<path d="M98.7881 209.684L93.432 207.521C93.3408 207.481 93.2382 207.476 93.1433 207.506C93.0484 207.536 92.9677 207.6 92.9163 207.685L90.5723 211.612C90.517 211.713 90.4838 211.825 90.475 211.94C90.4662 212.055 90.4821 212.17 90.5215 212.278C90.5608 212.386 90.6229 212.485 90.7034 212.567C90.7839 212.649 90.8811 212.714 90.9884 212.755C92.8753 213.482 93.8188 213.734 96.1745 214.69C97.6278 215.276 99.6905 216.278 101.683 217.093C103.675 217.908 104.613 215.997 103.845 215.481C100.441 213.177 100.329 211.847 99.4795 210.299C99.3281 210.02 99.0834 209.802 98.7881 209.684Z" fill="#263238"/>
<path d="M102.287 204.461L94.0005 201.109L94.7623 198.072L103.652 201.325L102.287 204.461Z" fill="#FF8084"/>
<path d="M110.584 76.8444C108.902 81.7153 103.927 93.1805 100.089 88.4033C99.398 87.5595 98.8334 86.6196 98.413 85.6132C96.7898 81.5981 96.3854 75.0918 96.1803 73.6675L94.8735 69.2069C94.8505 69.1308 94.8386 69.0519 94.8384 68.9724V66.4227C94.8384 65.391 95.6705 64.7756 96.7956 64.8693C96.7956 64.8693 98.6122 64.6583 98.6122 65.7427L98.9638 69.5703C99.1455 70.9008 98.6181 72.7531 98.9287 73.9723C100.101 78.5618 101.712 78.7729 102.726 83.509C104.138 80.0917 106.664 74.1774 106.664 74.1774C108.34 74.3884 111.135 75.2442 110.584 76.8444Z" fill="#FFB573"/>
<path d="M104.572 90.15C104.308 90.5613 103.949 90.9024 103.524 91.144C103.1 91.3857 102.623 91.5207 102.135 91.5374C101.647 91.5541 101.162 91.4521 100.722 91.24C100.282 91.028 99.8995 90.7123 99.6084 90.32C98.9137 89.3967 98.3679 88.3702 97.991 87.2779C96.4674 82.278 95.5239 79.1831 95.395 73.9605C95.935 73.4148 96.6172 73.0315 97.3641 72.8543C98.111 72.6771 98.8926 72.7131 99.6201 72.9582L102.116 81.4164C102.116 81.4164 107.197 68.7848 109.254 68.3335C111.674 67.8001 112.682 69.963 113.708 72.6241C114.446 74.535 107.883 85.0447 104.572 90.15Z" fill="#FF8084"/>
<path d="M125.1 55.6902C124.514 58.6209 123.236 65.0217 125.287 66.9795C125.287 66.9795 124.484 69.9512 119.04 69.9512C113.046 69.9512 116.175 66.9795 116.175 66.9795C119.445 66.1999 119.357 63.7732 118.788 61.4931L125.1 55.6902Z" fill="#FFB573"/>
<path d="M115.94 48.8088C115.975 48.8142 116.011 48.8142 116.046 48.8088C116.1 48.7789 116.14 48.7294 116.159 48.6705C116.177 48.6115 116.173 48.5477 116.145 48.4922C115.989 48.1555 115.753 47.8617 115.458 47.6361C115.163 47.4105 114.818 47.2598 114.452 47.1968C114.421 47.1928 114.39 47.1949 114.361 47.2031C114.331 47.2113 114.303 47.2254 114.279 47.2445C114.255 47.2637 114.235 47.2875 114.22 47.3146C114.206 47.3416 114.197 47.3714 114.194 47.402C114.19 47.4325 114.192 47.4635 114.2 47.4932C114.208 47.5228 114.222 47.5505 114.242 47.5746C114.261 47.5987 114.285 47.6187 114.312 47.6333C114.339 47.648 114.368 47.657 114.399 47.6599C114.687 47.7162 114.958 47.8401 115.19 48.0215C115.421 48.2028 115.606 48.4365 115.729 48.7033C115.752 48.7379 115.783 48.7659 115.82 48.7845C115.858 48.803 115.899 48.8114 115.94 48.8088Z" fill="#263238"/>
<path d="M114.153 51.3409C113.689 52.198 113.109 52.987 112.43 53.6855C112.614 53.8542 112.833 53.9809 113.07 54.0568C113.308 54.1327 113.56 54.156 113.807 54.1252L114.153 51.3409Z" fill="#ED893E"/>
<path d="M114.622 50.4852C114.71 50.872 114.569 51.2355 114.317 51.2882C114.065 51.341 113.784 51.0713 113.702 50.7021C113.62 50.3328 113.754 49.9518 114.012 49.8932C114.27 49.8346 114.54 50.0925 114.622 50.4852Z" fill="#263238"/>
<path d="M114.129 49.8756L113.133 49.8052C113.133 49.8052 113.772 50.4324 114.129 49.8756Z" fill="#263238"/>
<path opacity="0.2" d="M110.373 74.3474C111.41 73.392 112.131 73.6792 112.588 74.4353C113.063 76.6275 110.244 81.223 109.137 82.9638L110.373 74.3474Z" fill="#222222"/>
<path d="M134.37 77.2371C134.235 79.6521 134.007 82.6942 133.638 86.5218C133.251 90.5603 132.7 95.4664 131.944 101.428C123.98 101.428 115.642 101.304 111.768 101.304C112.096 93.3856 112.214 85.3612 108.662 69.6054C108.618 69.4101 108.613 69.2078 108.648 69.0106C108.683 68.8134 108.758 68.6252 108.867 68.4573C108.977 68.2895 109.119 68.1453 109.285 68.0334C109.451 67.9215 109.638 67.8442 109.834 67.806C112.149 67.3862 114.488 67.1102 116.837 66.9795C119.871 66.7624 122.916 66.7624 125.949 66.9795C129.858 67.337 134.3 68.2456 134.3 68.2456C134.3 68.2456 134.78 69.6992 134.37 77.2371Z" fill="#FF8084"/>
<path opacity="0.2" d="M134.37 77.2371C134.235 79.6521 134.007 82.6942 133.638 86.5218C131.493 84.0365 129.465 75.4787 130.122 72.5538C131.72 73.7365 133.126 75.1602 134.288 76.7741C134.324 76.9268 134.351 77.0814 134.37 77.2371Z" fill="#222222"/>
<path d="M155.05 87.9637L159.152 85.666L159.914 89.8452C159.914 89.8452 156.456 91.1758 154.64 90.2438L155.05 87.9637Z" fill="#FFB573"/>
<path d="M161.865 86.1408L162.152 87.5065C162.194 87.7159 162.174 87.9331 162.094 88.1311C162.014 88.3291 161.877 88.4992 161.701 88.6202L159.896 89.8394L159.134 85.6601L160.547 85.3084C160.688 85.2731 160.835 85.2667 160.979 85.2898C161.123 85.3128 161.26 85.3648 161.384 85.4426C161.507 85.5204 161.613 85.6224 161.696 85.7424C161.779 85.8624 161.836 85.9979 161.865 86.1408Z" fill="#FFB573"/>
<path d="M130.444 73.0872C131.751 75.7483 136.544 85.8008 138.648 88.122L139.064 88.5557L139.269 88.7726C139.339 88.8429 139.398 88.9074 139.509 89.007C139.887 89.3663 140.304 89.6828 140.752 89.9508C141.551 90.4125 142.411 90.7598 143.307 90.9824C144.877 91.3468 146.489 91.4986 148.1 91.4337C151.102 91.3137 154.075 90.8094 156.949 89.9332L156.462 87.4948C155.109 87.612 153.69 87.6941 152.319 87.7175C150.96 87.7576 149.6 87.7145 148.247 87.5886C146.991 87.4984 145.752 87.2563 144.555 86.8676C144.071 86.705 143.613 86.4741 143.195 86.1818C143.035 86.0693 142.888 85.9396 142.756 85.7949C142.709 85.7471 142.666 85.6961 142.627 85.6425L142.474 85.4608L142.164 85.0974C140.546 83.0693 136.275 73.2923 134.991 70.8481L130.444 73.0872Z" fill="#FFB573"/>
<path d="M154.986 92.1253C151.608 93.9207 147.657 94.3043 143.998 93.1921C140.507 92.0693 137.562 89.6817 135.741 86.4983C133.626 83.3858 127.994 74.5818 128.709 72.3076C129.547 69.5878 131.329 67.8997 134.306 68.6324C136.398 69.1365 140.388 79.3004 142.322 83.3624C143.078 84.4937 144.531 86.2931 146.154 86.8441C149.02 87.8347 151.13 87.4303 154.13 86.9789C154.681 87.3072 154.64 87.8171 154.915 88.3857C155.211 88.9625 155.371 89.5993 155.383 90.2474C155.395 90.8955 155.259 91.5378 154.986 92.1253Z" fill="#FF8084"/>
<path d="M128.053 50.9952C127.156 55.8133 126.881 57.8707 124.115 60.0629C119.966 63.3571 114.241 61.2 113.684 56.206C113.18 51.7103 114.733 44.5827 119.726 43.2404C120.825 42.9386 121.983 42.923 123.09 43.1951C124.198 43.4672 125.217 44.018 126.051 44.795C126.886 45.5721 127.507 46.5496 127.858 47.6348C128.208 48.72 128.275 49.8767 128.053 50.9952Z" fill="#FFB573"/>
<path d="M145.152 77.6709C144.232 78.7201 143.945 79.3297 142.662 79.8982C141.378 80.4668 138.601 79.9686 137.716 78.8842C138.003 79.7283 139.679 81.2288 140.558 81.3636C139.566 81.9078 138.418 82.0975 137.304 81.9014C136.189 81.7054 135.175 81.1352 134.428 80.2851C134.551 80.8137 134.807 81.3021 135.173 81.7033C135.538 82.1046 136 82.4054 136.515 82.577C125.287 82.87 130.016 77.5829 122.984 70.0626C115.202 61.7393 116.889 54.8579 116.889 54.8579C116.908 53.144 116.372 51.4701 115.36 50.0866C114.235 48.6447 114.563 46.6986 114.921 45.6084C115.442 44.0082 117.03 43.4455 118.554 43.3517C118.823 41.775 122.07 42.0622 122.462 42.326C122.855 42.5897 122.902 42.537 123.259 42.326C124.05 41.816 126.043 41.2885 128.176 43.0117C129.477 44.0668 130.871 45.9425 130.918 49.9752C130.965 54.1545 128.967 59.1192 135.882 65.4672C139.954 69.1951 138.003 77.2313 145.152 77.6709Z" fill="#263238"/>
<path d="M115.964 51.3585C115.419 52.1313 115.192 53.0842 115.331 54.0197C115.53 55.2564 116.731 55.3385 117.604 54.5472C118.478 53.7559 119.239 52.3257 118.595 51.2999C117.95 50.2742 116.643 50.4207 115.964 51.3585Z" fill="#FFB573"/>
<path d="M126.84 101.422C126.84 101.422 124.443 135.073 121.747 157.264C120.937 163.924 118.907 170.378 115.758 176.303L102.55 201.249L95.7759 198.582C95.7759 198.582 100.464 174.872 109.6 161.942C109.6 161.942 102.767 123.297 111.709 101.305L126.84 101.422Z" fill="#263238"/>
<path opacity="0.2" d="M117.628 109.575C117.628 109.575 119.644 124.815 120.746 133.883C116.614 128.432 113.409 120.823 117.628 109.575Z" fill="#222222"/>
<path d="M143.945 214.449C144.024 214.362 144.078 214.255 144.103 214.14C144.128 214.025 144.122 213.905 144.086 213.793C144.072 213.721 144.039 213.654 143.991 213.599C143.942 213.545 143.88 213.504 143.81 213.482C143.183 213.271 141.724 214.414 141.56 214.543C141.542 214.559 141.528 214.579 141.521 214.602C141.514 214.624 141.513 214.649 141.519 214.672C141.526 214.694 141.54 214.713 141.557 214.727C141.575 214.742 141.596 214.751 141.619 214.754C142.074 214.823 142.536 214.841 142.996 214.807C143.344 214.801 143.679 214.675 143.945 214.449ZM143.728 213.711C143.759 213.72 143.787 213.738 143.808 213.763C143.829 213.788 143.842 213.819 143.845 213.851C143.871 213.924 143.877 214.003 143.863 214.079C143.848 214.155 143.814 214.226 143.763 214.285C143.529 214.549 142.861 214.643 141.947 214.549C142.544 214.103 143.4 213.593 143.728 213.711Z" fill="#FF8084"/>
<path d="M141.707 214.736C142.17 214.414 142.996 213.236 142.82 212.679C142.792 212.586 142.734 212.506 142.654 212.452C142.574 212.397 142.477 212.372 142.381 212.38C142.288 212.378 142.195 212.395 142.109 212.431C142.023 212.468 141.946 212.522 141.883 212.591C141.373 213.13 141.508 214.584 141.514 214.649C141.517 214.669 141.525 214.689 141.537 214.706C141.55 214.724 141.565 214.738 141.584 214.748C141.605 214.754 141.627 214.754 141.648 214.748C141.669 214.75 141.689 214.746 141.707 214.736ZM142.375 212.62C142.533 212.62 142.574 212.691 142.592 212.744C142.691 213.089 142.193 213.963 141.742 214.391C141.674 213.826 141.785 213.254 142.059 212.755C142.125 212.681 142.217 212.635 142.316 212.626L142.375 212.62Z" fill="#FF8084"/>
<path d="M135.671 215.211L140.804 214.719L139.234 203.054L134.101 203.553L135.671 215.211Z" fill="#FFB573"/>
<path d="M141.15 214.103L135.384 214.66C135.285 214.667 135.192 214.711 135.123 214.782C135.053 214.854 135.013 214.948 135.009 215.047L134.798 219.602C134.798 219.717 134.822 219.831 134.87 219.937C134.917 220.042 134.986 220.137 135.072 220.214C135.159 220.291 135.26 220.348 135.371 220.383C135.481 220.418 135.597 220.43 135.712 220.416C137.716 220.194 138.642 219.983 141.209 219.736C142.767 219.584 145.065 219.525 147.221 219.32C149.378 219.115 149.278 217.005 148.393 216.899C144.291 216.436 143.535 215.323 142.07 214.332C141.799 214.151 141.474 214.07 141.15 214.103Z" fill="#263238"/>
<path d="M131.915 101.416C131.915 101.416 138.484 141.573 139.744 165.359L139.984 207.972L134.669 209.01C134.669 209.01 126.975 181.824 126.084 166.109C123.74 124.422 110.162 124.352 118.331 101.34L131.915 101.416Z" fill="#263238"/>
<path d="M141.748 208.148L132.952 209.35L132.055 205.973L141.46 204.748L141.748 208.148Z" fill="#FF8084"/>
<path d="M94.346 58.3337H94.68C94.6006 58.3336 94.5219 58.3497 94.4488 58.381C94.3757 58.4123 94.3098 58.4581 94.2549 58.5157C94.2001 58.5732 94.1576 58.6413 94.1299 58.7159C94.1023 58.7904 94.0901 58.8698 94.094 58.9492L94.6332 69.1541C94.6491 69.3142 94.7238 69.4628 94.8429 69.571C94.9619 69.6793 95.1169 69.7396 95.2777 69.7402H94.932C94.7715 69.7383 94.6172 69.6776 94.4985 69.5696C94.3797 69.4615 94.3046 69.3137 94.2874 69.1541L93.76 58.9492C93.756 58.8698 93.7683 58.7904 93.7959 58.7159C93.8236 58.6413 93.8661 58.5732 93.9209 58.5157C93.9757 58.4581 94.0417 58.4123 94.1148 58.381C94.1879 58.3497 94.2665 58.3336 94.346 58.3337Z" fill="#FF8084"/>
<path opacity="0.1" d="M94.346 58.3337H94.68C94.6006 58.3336 94.5219 58.3497 94.4488 58.381C94.3757 58.4123 94.3098 58.4581 94.2549 58.5157C94.2001 58.5732 94.1576 58.6413 94.1299 58.7159C94.1023 58.7904 94.0901 58.8698 94.094 58.9492L94.6332 69.1541C94.6491 69.3142 94.7238 69.4628 94.8429 69.571C94.9619 69.6793 95.1169 69.7396 95.2777 69.7402H94.932C94.7715 69.7383 94.6172 69.6776 94.4985 69.5696C94.3797 69.4615 94.3046 69.3137 94.2874 69.1541L93.76 58.9492C93.756 58.8698 93.7683 58.7904 93.7959 58.7159C93.8236 58.6413 93.8661 58.5732 93.9209 58.5157C93.9757 58.4581 94.0417 58.4123 94.1148 58.381C94.1879 58.3497 94.2665 58.3336 94.346 58.3337Z" fill="white"/>
<path d="M95.0199 69.7695H99.1219C99.2773 69.7695 99.4264 69.7078 99.5363 69.5979C99.6462 69.4879 99.7079 69.3388 99.7079 69.1834L99.1746 58.9785C99.1643 58.8136 99.0923 58.6586 98.9728 58.5446C98.8533 58.4305 98.6952 58.3657 98.53 58.363H94.428C94.3486 58.3629 94.2699 58.379 94.1968 58.4103C94.1237 58.4416 94.0578 58.4874 94.003 58.5449C93.9481 58.6025 93.9056 58.6706 93.878 58.7452C93.8503 58.8197 93.8381 58.8991 93.842 58.9785L94.3753 69.1834C94.3925 69.343 94.4676 69.4908 94.5864 69.5989C94.7051 69.7069 94.8594 69.7676 95.0199 69.7695Z" fill="#FF8084"/>
<path opacity="0.4" d="M95.0199 69.7695H99.1219C99.2773 69.7695 99.4264 69.7078 99.5363 69.5979C99.6462 69.4879 99.7079 69.3388 99.7079 69.1834L99.1746 58.9785C99.1643 58.8136 99.0923 58.6586 98.9728 58.5446C98.8533 58.4305 98.6952 58.3657 98.53 58.363H94.428C94.3486 58.3629 94.2699 58.379 94.1968 58.4103C94.1237 58.4416 94.0578 58.4874 94.003 58.5449C93.9481 58.6025 93.9056 58.6706 93.878 58.7452C93.8503 58.8197 93.8381 58.8991 93.842 58.9785L94.3753 69.1834C94.3925 69.343 94.4676 69.4908 94.5864 69.5989C94.7051 69.7069 94.8594 69.7676 95.0199 69.7695Z" fill="white"/>
<path d="M99.462 68.9431C99.4652 68.9943 99.458 69.0456 99.4409 69.0939C99.4238 69.1423 99.3971 69.1867 99.3624 69.2244C99.2887 69.2962 99.1898 69.3362 99.087 69.3358H95.0963C94.9847 69.3345 94.8778 69.2907 94.7973 69.2134C94.7167 69.1361 94.6686 69.0311 94.6627 68.9196L94.1411 59.0195C94.1374 58.9692 94.1443 58.9186 94.1614 58.8711C94.1786 58.8236 94.2057 58.7803 94.2408 58.744C94.276 58.7063 94.3186 58.6764 94.3661 58.6563C94.4135 58.6361 94.4646 58.626 94.5162 58.6268H98.5068C98.6184 58.6281 98.7254 58.6719 98.8059 58.7492C98.8864 58.8265 98.9345 58.9315 98.9405 59.043L98.9756 59.7522L99.462 68.9431Z" fill="#263238"/>
<g opacity="0.1">
<path d="M98.9754 59.7522L97.6511 69.3241H96.063L97.5632 58.6151H98.5066C98.6182 58.6164 98.7251 58.6602 98.8057 58.7375C98.8862 58.8148 98.9343 58.9198 98.9403 59.0313L98.9754 59.7522Z" fill="white"/>
<path d="M95.4888 69.3358H95.1313L96.6315 58.6268H96.989L95.4888 69.3358Z" fill="white"/>
</g>
<path d="M110.473 102.559C107.489 108.441 105.886 114.926 105.785 121.521C115.747 129.252 125.023 120.196 136.427 121.726C136.028 116.574 134.276 107.072 132.202 102.313C124.648 102.635 117.593 101.879 110.473 102.559Z" fill="#FF8084"/>
<path d="M111.51 100.466C111.51 100.466 110.707 102.535 110.924 102.535H131.85C132.032 102.535 132.178 102.447 132.19 102.33L132.371 100.572C132.371 100.449 132.225 100.343 132.032 100.343H111.838C111.777 100.335 111.716 100.342 111.658 100.363C111.601 100.385 111.55 100.42 111.51 100.466Z" fill="white"/>
<path d="M114.458 102.735H113.919C113.807 102.735 113.725 102.676 113.731 102.606L113.989 100.261C113.989 100.191 114.089 100.138 114.194 100.138H114.739C114.845 100.138 114.927 100.191 114.921 100.261L114.669 102.606C114.652 102.647 114.623 102.682 114.585 102.706C114.547 102.729 114.502 102.739 114.458 102.735Z" fill="#FF8084"/>
<path d="M127.56 102.735H127.021C126.916 102.735 126.834 102.676 126.84 102.606L127.092 100.261C127.092 100.191 127.191 100.138 127.303 100.138H127.842C127.947 100.138 128.029 100.191 128.023 100.261L127.771 102.606C127.748 102.653 127.672 102.735 127.56 102.735Z" fill="#FF8084"/>
</g>
<defs>
<clipPath id="clip0_7431_24401">
<rect width="293" height="225" fill="white"/>
</clipPath>
</defs>
</svg>
